<?xml version="1.0" encoding="UTF-8" standalone="no"?>
<!-- Created with Inkscape (http://www.inkscape.org/) -->

<svg
   width="210mm"
   height="297mm"
   viewBox="0 0 210 297"
   version="1.1"
   id="svg5"
   inkscape:version="1.1 (c68e22c387, 2021-05-23)"
   sodipodi:docname="aderwolf.svg"
   xmlns:inkscape="http://www.inkscape.org/namespaces/inkscape"
   xmlns:sodipodi="http://sodipodi.sourceforge.net/DTD/sodipodi-0.dtd"
   xmlns="http://www.w3.org/2000/svg"
   xmlns:svg="http://www.w3.org/2000/svg">
  <sodipodi:namedview
     id="namedview7"
     pagecolor="#ffffff"
     bordercolor="#666666"
     borderopacity="1.0"
     inkscape:pageshadow="2"
     inkscape:pageopacity="0.0"
     inkscape:pagecheckerboard="0"
     inkscape:document-units="mm"
     showgrid="false"
     inkscape:zoom="0.65744949"
     inkscape:rotation="-1"
     inkscape:cx="316.62045"
     inkscape:cy="467.99"
     inkscape:window-width="1920"
     inkscape:window-height="1002"
     inkscape:window-x="-8"
     inkscape:window-y="-8"
     inkscape:window-maximized="1"
     inkscape:current-layer="layer3" />
  <defs
     id="defs2" />
  <g
     inkscape:groupmode="layer"
     id="layer3"
     inkscape:label="Layer 3"
     style="display:none">
    <rect
       style="fill:#554135;fill-opacity:1;fill-rule:evenodd;stroke:none;stroke-width:0.365001"
       id="rect113884"
       width="232.01025"
       height="312.19095"
       x="-18.603569"
       y="-13.341685" />
  </g>
  <g
     inkscape:groupmode="layer"
     id="layer2"
     inkscape:label="Layer 2"
     style="display:inline">
    <path
       style="fill:none;stroke:none;stroke-width:0.264583px;stroke-linecap:butt;stroke-linejoin:miter;stroke-opacity:1"
       d="m 62.318561,97.561502 -0.483963,1.269368 1.099288,4.45523 -0.53236,5.30148 -1.313617,5.20815 -1.043979,8.40645 1.161513,7.41087 0.995584,6.87574 0.566928,6.11661 2.157098,5.17081 2.488957,5.62505 3.553676,4.97791 3.927023,2.8063 2.613403,1.16981"
       id="path870" />
    <path
       style="fill:none;stroke:none;stroke-width:0.264583px;stroke-linecap:butt;stroke-linejoin:miter;stroke-opacity:1"
       d="m 117.87761,168.46567 3.97542,0.75913 2.28846,-2.21517 1.90129,-2.17161 3.10428,-3.77077 6.65796,-9.66338 2.37142,-3.24809 2.62032,-6.29706 1.80449,-8.19489 1.08547,-6.24729 2.19858,-7.0873 -1.79067,-10.39762 -2.10178,-6.65796 -2.37143,-3.776993 -4.27271,-3.235645"
       id="path905" />
    <path
       style="fill:none;stroke:none;stroke-width:0.264583px;stroke-linecap:butt;stroke-linejoin:miter;stroke-opacity:1"
       d="m 77.508112,162.35528 0.698868,3.98222 0.07259,2.12805 1.752642,3.62144 1.503744,3.86099 1.237564,2.58541 2.637605,0.65024 1.711158,-0.34846 1.700787,0.23645 2.620319,0.74047 3.733435,1.18536 5.382376,-0.39512 1.78721,-0.57557 2.10524,-0.51957 1.59362,0.0529 3.39812,0.48846 1.89438,-0.8338 3.49836,-5.73083 1.15806,-2.90274 1.88342,-2.1155"
       id="path973" />
    <path
       style="fill:none;stroke:none;stroke-width:0.264583px;stroke-linecap:butt;stroke-linejoin:miter;stroke-opacity:1"
       d="m 88.823069,179.07162 4.725566,-1.3067 2.208951,-0.91158 1.915112,-0.16801 2.129441,1.25382 2.165851,0.69347 2.48366,0.87457"
       id="path1008" />
    <path
       style="fill:none;stroke:none;stroke-width:0.264583px;stroke-linecap:butt;stroke-linejoin:miter;stroke-opacity:1"
       d="m 88.30807,166.3887 -0.88842,1.90405 0.464952,1.88383 0.817552,0.0498 0.603226,-0.10111 0.409641,-0.84469 0.09852,-0.78869 -0.08815,-0.57091 -0.364702,-0.62535 -1.052621,-0.90691"
       id="path1043" />
    <path
       style="fill:none;stroke:none;stroke-width:0.264583px;stroke-linecap:butt;stroke-linejoin:miter;stroke-opacity:1"
       d="m 100.86175,168.13253 1.57288,-1.05314 0.98003,-0.63624 0.96274,-0.0482 -0.11408,1.3067 -0.22124,1.00026 -0.35951,0.90691 -0.68792,0.66268 -0.73459,0.19134 -0.99213,-0.0482 -0.69483,-0.59113 -0.18322,-0.71091 z"
       id="path1078" />
    <path
       style="fill:none;stroke:none;stroke-width:0.264583px;stroke-linecap:butt;stroke-linejoin:miter;stroke-opacity:1"
       d="m 77.508112,162.35528 0.0525,-3.24221 0.0035,-2.37696 0.290377,-2.31162 1.123487,-2.05338 0.940274,-2.53252 2.316112,-3.68054 1.942769,-2.89964 2.31957,-3.31653 1.206453,-2.29296"
       id="path1080" />
    <path
       style="fill:none;stroke:none;stroke-width:0.264583px;stroke-linecap:butt;stroke-linejoin:miter;stroke-opacity:1"
       d="m 113.87173,139.42853 -0.73631,1.51515 -0.0519,2.10939 0.57385,1.03914 1.19262,2.36762 1.3793,1.31604 1.49337,2.00983 1.24102,2.7783 0.4978,1.7796 0.26963,3.57477 0.13828,3.43787 -0.72249,3.12675 -1.26933,3.98268 v 0"
       id="path1115" />
    <path
       style="fill:none;stroke:none;stroke-width:0.264583px;stroke-linecap:butt;stroke-linejoin:miter;stroke-opacity:1"
       d="m 71.303652,129.67182 0.490878,-0.4169 2.454389,-2.17784 1.29979,-0.45424 1.192625,-0.11822 1.358556,-0.0249 h 1.486458 l 1.600539,0.43557 2.233147,1.51204 0.560017,1.2787 0.473593,1.02047 0.266179,1.22892 -0.138274,0.87425 -0.580758,1.1667 -0.542731,0.98625 -0.528903,0.84313 -1.026694,0.8338 -1.054351,0.58802 -1.420778,0.78713 -1.368928,0.0622 -1.213366,-0.28934 -1.427694,-0.88047 -0.912617,-0.64713 -0.964472,-0.97069 -0.846937,-1.00181 -0.483963,-0.71869 -0.162475,-0.85869 -0.290377,-1.28492 -0.207413,-1.07336 z"
       id="path1150" />
    <path
       style="fill:none;stroke:none;stroke-width:0.264583px;stroke-linecap:butt;stroke-linejoin:miter;stroke-opacity:1"
       d="m 116.0876,130.55228 2.12252,-1.59915 2.01883,-0.66891 1.52102,-0.3609 1.83215,-0.21778 1.53486,0.0373 1.81832,0.38579 1.41041,0.66891 1.61782,0.56624 0.70521,1.75782 -0.26964,1.75472 -0.18321,0.87113 -0.58767,1.02359 -0.43903,0.92713 -1.06818,1.65205 -2.53044,1.90716 -3.19416,0.51646 -1.33435,0.0685 -1.63511,-0.60046 -0.7778,-0.95825 -0.63607,-1.12625 -0.51162,-1.29426 -0.74668,-1.5276 -0.51508,-1.37826 -0.14173,-1.28492 z"
       id="path1185" />
    <path
       style="fill:none;stroke:none;stroke-width:0.264583px;stroke-linecap:butt;stroke-linejoin:miter;stroke-opacity:1"
       d="m 117.50146,135.86312 v 0 l 0.51162,1.29426 1.90989,0.40724 0.99213,0.38112 1.97561,0.24267 1.55906,-0.29089 1.76128,-1.26315 1.26695,-1.5416 0.42692,-0.81202 0.64644,-1.11381 0.19186,-1.39537 0.0328,-0.55846 0.0311,-0.57868 -0.46146,-1.83689 v 0"
       id="path1187" />
    <path
       style="fill:none;stroke:none;stroke-width:0.264583px;stroke-linecap:butt;stroke-linejoin:miter;stroke-opacity:1"
       d="m 73.381255,128.27036 0.400878,1.48057 0.135665,1.47946 0.03055,0.83378 0.389879,1.15058 0.410657,0.64238 0.669761,0.59949 1.863847,1.55426 1.326078,0.76778 1.422633,-0.0847 1.871255,-0.0344"
       id="path1222" />
    <path
       style="fill:none;stroke:none;stroke-width:0.264583px;stroke-linecap:butt;stroke-linejoin:miter;stroke-opacity:1"
       d="m 86.496701,139.94188 v 0 l -3.295274,0.9113 -1.312638,1.04278 -0.525542,0.42679 -2.087506,0.96138 -1.945733,0.022 -1.879732,-0.32559 -1.35908,-0.40259 -1.623073,-0.94158 0.351993,-0.2178 1.337077,0.2178"
       id="path1257" />
    <path
       style="fill:none;stroke:none;stroke-width:0.264583px;stroke-linecap:butt;stroke-linejoin:miter;stroke-opacity:1"
       d="m 74.157191,141.63637 1.185532,-1.15938 -1.926178,-1.10437 -0.723537,-0.2618 -1.329748,-0.51478 -1.349301,-0.48839 -1.388412,-1.15278 -0.706427,-1.29356 -0.0049,-1.28697 0.5231,-1.52237 0.611095,-1.36396 0.549987,-1.06258 0.644377,-1.50751 1.983965,-2.23209 1.867471,-1.42283 3.183332,-0.83514 2.881931,0.58299 3.065262,1.37937 2.779268,1.41016 1.603517,-1.45416 1.11464,-1.14618 3.722801,-0.32999 3.588358,-0.82058 1.735516,-0.37179 3.40259,-3.60352 3.28037,4.4615 1.7844,0.1342 0.71621,0.88218 5.18943,1.21217 1.22219,0.63138 2.02151,1.09338 3.80836,-2.24835 2.52749,-0.88218 1.2833,-0.0814 0.2955,0.007 1.62919,0.48839 1.67073,0.68858 1.70985,0.67429 1.80763,0.96907 1.08286,1.03398 0.88487,1.39477 0.19433,1.13737 0.69298,0.97678 0.8812,1.21987 0.13444,1.70716 -0.31532,1.76435 -0.88609,1.45197 -1.01565,1.17697"
       id="path1259" />
    <path
       style="fill:none;stroke:none;stroke-width:0.264583px;stroke-linecap:butt;stroke-linejoin:miter;stroke-opacity:1"
       d="m 113.87173,139.42853 1.36996,2.4695 1.4434,1.47286 1.89807,1.07138 1.54852,0.80188 1.47396,0.43449 0.58055,-1.14397 0.3251,-0.44 1.66218,0.49059 0.69665,0.0308 0.75532,-1.70936 0.44732,-0.73588 1.58152,0.38279 1.04375,-0.25189 0.0501,-1.69836 0.8091,-0.3542 1.37496,-0.0583 0.83901,-0.22328"
       id="path1327" />
    <path
       style="fill:none;stroke:none;stroke-width:0.264583px;stroke-linecap:butt;stroke-linejoin:miter;stroke-opacity:1"
       d="m 91.874365,168.92137 2.180392,-0.50378 0.86287,-0.0968 0.860425,0.91298 1.596183,0.0792"
       id="path1362" />
    <path
       style="fill:none;stroke:none;stroke-width:0.264583px;stroke-linecap:butt;stroke-linejoin:miter;stroke-opacity:1"
       d="m 97.374233,169.31297 v 0 l 1.459301,-0.99658 0.476655,-0.26399 0.901981,-1.27158 -0.18333,-0.75238 -0.354436,-0.80298 -1.385967,-1.54656 -1.566852,0.0748 -1.471523,0.51259 -1.048641,-0.297 -0.66243,-0.75678 -1.723292,0.46859 -1.31019,1.46296 -0.01309,2.07484 0.409065,0.81813 0.569135,0.81813 0.403743,0.0662"
       id="path1397" />
    <path
       style="fill:none;stroke:none;stroke-width:0.264583px;stroke-linecap:butt;stroke-linejoin:miter;stroke-opacity:1"
       d="m 98.914504,132.71859 -0.251772,0.35639 -1.8724,3.59032 -1.434854,3.78611 -3.87191,12.4693 3.155704,5.30188 3.079927,1.31557 3.304811,-3.04913 1.97751,-3.55952 0.24199,-2.63553 -0.17599,-3.63872 -1.27108,-5.15228 -0.44977,-2.82913 -0.25911,-3.28672 -0.92886,-1.99535 -0.821317,-0.86678"
       id="path1465" />
    <path
       style="fill:none;stroke:none;stroke-width:0.264583px;stroke-linecap:butt;stroke-linejoin:miter;stroke-opacity:1"
       d="m 39.215192,24.749395 -1.057807,8.817131 2.191663,5.226809 2.523527,4.641905 2.461302,5.6686 3.747262,6.041943 3.339351,6.944191 3.643559,8.207338 2.067216,7.124639 1.645478,5.444593 1.17534,7.970885 1.366478,6.724073"
       id="path1570" />
    <path
       style="fill:none;stroke:none;stroke-width:0.264583px;stroke-linecap:butt;stroke-linejoin:miter;stroke-opacity:1"
       d="m 39.215192,24.749395 1.507201,-4.641905 1.231875,4.944339 0.381554,5.738804 3.342808,6.922412 4.991742,6.633071 7.760706,5.895717 4.919148,4.072556 4.777415,4.626349 8.697522,7.821548 4.901863,3.649434 8.662954,3.185865"
       id="path1605" />
    <path
       style="fill:none;stroke:none;stroke-width:0.264583px;stroke-linecap:butt;stroke-linejoin:miter;stroke-opacity:1"
       d="m 42.872575,43.43524 v 0 l 5.308335,6.246736 3.249472,4.240559 4.919147,5.422818 4.376417,5.226809 5.385827,4.716574 4.490492,4.181448 2.457844,4.131667 2.333398,3.388093 4.801613,5.553488 3.239103,1.571154 1.994623,0.759132 3.12848,1.645822 -2.692913,-4.109889 -0.05877,-3.232534 3.118109,-4.299675 3.505282,-1.907162 1.572882,-1.188479 -3.611941,-2.184217"
       id="path1673" />
    <path
       style="fill:none;stroke:none;stroke-width:0.264583px;stroke-linecap:butt;stroke-linejoin:miter;stroke-opacity:1"
       d="m 94.001914,75.781801 6.799696,1.020474 2.5581,1.717379 2.3092,-1.40626 3.08354,-0.407567 5.32706,-0.08711 1.78721,0.382675"
       id="path1708" />
    <path
       style="fill:none;stroke:none;stroke-width:0.264583px;stroke-linecap:butt;stroke-linejoin:miter;stroke-opacity:1"
       d="m 115.86672,77.00139 v 0 l 2.7462,0.145537 5.13002,-2.488957 7.31823,-4.489458 7.5602,-4.461454 6.04955,-5.002805 5.7488,-4.299672 8.41752,-6.269062 6.70981,-6.626849 3.75072,-6.356172 1.83906,-2.772077 2.05339,-1.969389 2.64452,-2.971191 0.79163,1.574265 -0.12445,2.352064 -1.09929,5.096139 -2.60303,7.575765 -2.6065,9.619818 -3.15267,6.872634 -3.8648,7.883771 -3.90628,11.558095 -3.64356,12.743461"
       id="path1743" />
    <path
       style="fill:none;stroke:none;stroke-width:0.264583px;stroke-linecap:butt;stroke-linejoin:miter;stroke-opacity:1"
       d="m 175.40263,38.462309 v 0 l -6.68432,4.902931 -3.20799,4.00722 -3.60207,4.65746 -5.97696,7.575764 -7.76416,9.066028 -5.10236,8.642903 -4.03419,10.008719 -3.63318,4.495678 -0.0487,4.44201"
       id="path1778" />
    <path
       style="fill:none;stroke:none;stroke-width:0.264583px;stroke-linecap:butt;stroke-linejoin:miter;stroke-opacity:1"
       d="m 142.99261,107.06719 2.33339,-1.73294 2.08796,-1.26937 2.60995,-2.31784 3.53293,-4.872132 2.06895,-2.159055"
       id="path1813" />
    <path
       style="fill:none;stroke:none;stroke-width:0.264583px;stroke-linecap:butt;stroke-linejoin:miter;stroke-opacity:1"
       d="m 118.61292,77.146927 1.08287,6.587511 -0.3526,5.205031 1.25139,1.543154 4.49741,-2.258727 4.52852,-3.954333 4.71865,-7.706431 2.99366,-2.964971 6.81006,-7.27709 2.76205,-2.728518 6.36902,-6.313807 4.82278,-5.295276 7.45032,-8.4748"
       id="path1848" />
    <path
       style="fill:none;stroke:none;stroke-width:0.264583px;stroke-linecap:butt;stroke-linejoin:miter;stroke-opacity:1"
       d="m 53.723664,56.227212 -0.03457,0.507127 4.818898,9.23403 4.127519,6.70774 3.418861,9.790935 3.719608,7.395313 4.9468,5.373037 1.65585,1.82005 -1.420781,3.201426 -2.903783,2.86852 -1.7077,2.85919"
       id="path1916" />
    <path
       style="fill:none;stroke:none;stroke-width:0.264583px;stroke-linecap:butt;stroke-linejoin:miter;stroke-opacity:1"
       d="m 62.933886,103.2861 v 0 l 7.410479,2.69848"
       id="path1951" />
    <path
       style="fill:none;stroke:none;stroke-width:0.264583px;stroke-linecap:butt;stroke-linejoin:miter;stroke-opacity:1"
       d="m 138.17644,148.15578 v 0 l -3.50336,10.76955 -2.75727,7.98581 -3.42214,5.02468 -5.54387,5.98826 -6.51673,4.83989 -7.66071,8.3202 -8.28647,8.2894"
       id="path1986" />
    <path
       style="fill:none;stroke:none;stroke-width:0.264583px;stroke-linecap:butt;stroke-linejoin:miter;stroke-opacity:1"
       d="m 61.367042,94.501336 -0.79198,0.246396 -6.956726,2.551938 -6.668286,3.11513 -5.436317,1.81715 -5.206542,2.80274 0.835979,1.78196 -0.806647,22.54067 0.449767,8.197 3.084816,18.67756 13.263243,14.80125 5.895861,16.05522 4.546559,14.02736 2.556829,11.99852 2.776823,1.14837 6.594956,-4.2327 9.171339,-1.64556 7.905147,-2.66194 7.904027,-6.34883"
       id="path2021" />
    <path
       style="fill:none;stroke:none;stroke-width:0.264583px;stroke-linecap:butt;stroke-linejoin:miter;stroke-opacity:1"
       d="m 40.554822,128.88921 1.080418,-0.78758 4.874107,-3.51112 3.045706,0.76559 1.212416,3.67391 -2.063062,4.76069 -1.417746,2.97873 -3.422139,1.18797 -2.635049,-1.92715 -1.583963,-1.81276 -0.298217,-1.28477 z"
       id="path2122" />
    <path
       style="fill:none;stroke:none;stroke-width:0.264583px;stroke-linecap:butt;stroke-linejoin:miter;stroke-opacity:1"
       d="m 37.143168,106.81665 v 0 l 3.42632,3.3906 -2.444387,2.91274 6.096301,-3.20753 5.97408,-5.45147 3.280368,-0.91518 3.739911,-4.259098 4.151281,-4.785378"
       id="path2157" />
    <path
       style="fill:none;stroke:none;stroke-width:0.264583px;stroke-linecap:butt;stroke-linejoin:miter;stroke-opacity:1"
       d="m 61.367042,94.501334 0.357042,-0.267721"
       id="path2305" />
    <path
       style="fill:#7d838d;fill-opacity:1;fill-rule:evenodd;stroke:none;stroke-width:2.0983"
       d="m 362.7518,598.95906 c -2.2576,-0.90152 -6.20225,-5.55762 -9.65811,-11.40003 l -5.84184,-9.87609 7.87234,-25.25458 c 7.83434,-25.13267 17.56064,-48.96763 19.98216,-48.96763 2.42537,0 5.49141,8.41603 6.40603,17.58406 0.50581,5.07012 2.31263,15.19246 4.01514,22.49409 4.46037,19.12927 4.15816,31.33676 -0.99338,40.12719 -4.27893,7.30145 -13.83579,17.14455 -16.44503,16.93757 -0.83657,-0.0664 -3.23835,-0.80642 -5.33731,-1.64458 z"
       id="path10407"
       transform="scale(0.26458333)" />
    <path
       style="fill:#7d838d;fill-opacity:1;fill-rule:evenodd;stroke:none;stroke-width:1.04915"
       d="m 360.84694,636.97129 c -1.88338,-1.86044 -1.88589,-1.86069 -7.58787,-0.76141 -3.13712,0.6048 -6.06863,1.10004 -6.51446,1.10054 -1.53637,0.002 -4.13274,-5.81874 -4.13274,-9.26462 0,-2.87757 0.40776,-3.75272 2.86777,-6.15485 3.53919,-3.45593 7.51513,-4.50191 9.06349,-2.3844 1.15051,1.57342 4.63883,1.76833 12.25827,0.68495 3.75479,-0.53388 4.18934,-0.42683 6.23916,1.53702 1.2118,1.16098 2.77739,3.32075 3.4791,4.79949 1.19975,2.52827 1.19659,2.83578 -0.0529,5.15596 -1.67623,3.11256 -8.05447,7.14837 -11.29739,7.14837 -1.56665,0 -3.11198,-0.66535 -4.32242,-1.86105 z"
       id="path10446"
       transform="scale(0.26458333)" />
    <path
       style="fill:#7d838d;fill-opacity:1;fill-rule:evenodd;stroke:none;stroke-width:1.48372"
       d="m 349.54731,679.8365 -9.67977,-3.08045 4.83989,-1.22728 c 2.66193,-0.67501 7.99779,-2.42467 11.85746,-3.88814 8.41426,-3.19043 11.27483,-3.30354 15.67588,-0.61983 1.83366,1.11815 6.78935,3.14588 11.01264,4.50609 l 7.67872,2.47309 -5.85476,1.8115 c -3.22013,0.99632 -10.35376,2.10264 -15.85253,2.45848 -9.05339,0.58587 -10.91208,0.35602 -19.67753,-2.43346 z"
       id="path10485"
       transform="scale(0.26458333)" />
    <path
       style="fill:#0e0e11;fill-opacity:1;fill-rule:evenodd;stroke:none;stroke-width:1.04915"
       d="m 332.11422,639.49903 c -0.64233,-2.53057 -0.55718,-3.63666 0.44111,-5.73009 1.52859,-3.20549 3.10868,-3.04502 5.01491,0.50929 1.32451,2.46965 1.34032,2.84975 0.22894,5.50475 -0.91478,2.18535 -1.62566,2.85193 -3.0414,2.85193 -1.52903,0 -1.98483,-0.54068 -2.64356,-3.13588 z"
       id="path22853"
       transform="scale(0.26458333)" />
    <path
       style="fill:#0e0e11;fill-opacity:1;fill-rule:evenodd;stroke:none;stroke-width:1.04915"
       d="m 381.80611,641.90505 c -2.27976,-2.51911 -0.97179,-4.94399 4.72995,-8.76899 6.65953,-4.46754 7.3559,-4.44951 6.66278,0.17253 -0.29712,1.98133 -1.01849,4.5273 -1.60304,5.65769 -2.22185,4.29658 -7.20667,5.79297 -9.78969,2.93877 z"
       id="path22892"
       transform="scale(0.26458333)" />
    <path
       style="fill:#424442;fill-opacity:1;fill-rule:evenodd;stroke:none;stroke-width:1.48372"
       d="m 404.39935,678.28787 c -9.74643,-1.03018 -23.67396,-5.14191 -30.20934,-8.91849 -5.84494,-3.3776 -8.20439,-3.23019 -21.74288,1.35839 -12.57753,4.2629 -26.38793,5.98665 -34.27445,4.27799 -4.21286,-0.91275 -4.68825,-1.40998 -7.7976,-8.15578 -1.82116,-3.95107 -3.31121,-7.54321 -3.31121,-7.98253 0,-0.43932 -2.36714,-5.96659 -5.26032,-12.28282 -6.16246,-13.45357 -7.10828,-19.48953 -7.10828,-45.36325 0,-16.07665 0.10115,-16.84319 2.83836,-21.51061 1.5611,-2.66193 3.42036,-6.67533 4.13168,-8.91866 0.71132,-2.24332 6.96077,-12.64907 13.88765,-23.12389 11.99501,-18.13883 17.32363,-26.66248 17.32363,-27.71085 0,-1.84861 -2.41729,0.24229 -4.43921,3.83982 -1.91787,3.41239 -3.33978,4.54892 -6.79088,5.42796 -6.44146,1.64073 -10.04616,3.19728 -11.5217,4.9752 -0.72189,0.86982 -3.72663,2.80481 -6.67722,4.29998 -5.66778,2.87209 -10.83286,2.91133 -20.18427,0.15334 l -3.90326,-1.15117 3.36549,-3.03065 c 3.10827,-2.79902 3.23226,-3.16589 1.62227,-4.8001 -0.95877,-0.9732 -5.70556,-3.36709 -10.54841,-5.31975 -13.90156,-5.60518 -17.77624,-10.31016 -15.11967,-18.35965 5.87933,-17.81454 15.7373,-29.72673 27.25293,-32.93194 8.03466,-2.23633 12.89629,-1.21818 27.89453,5.84188 l 11.6032,5.46193 5.06752,-4.98827 c 4.59276,-4.52095 5.67207,-5.05034 11.52069,-5.65074 3.54925,-0.36436 11.29307,-1.66145 17.20848,-2.88242 l 10.75531,-2.21996 6.07279,-6.5679 c 3.34004,-3.61234 6.27101,-6.3259 6.51326,-6.03013 0.24226,0.29577 3.00019,4.04668 6.12873,8.33536 4.90749,6.7273 6.13779,7.79759 8.96335,7.79759 1.80131,0 3.81464,0.73785 4.47406,1.63967 0.65942,0.90182 5.55267,2.65863 10.87386,3.90403 5.32121,1.2454 12.44406,3.65347 15.82855,5.35128 3.3845,1.6978 6.74426,3.08692 7.46616,3.08692 0.72188,0 4.48659,-1.87874 8.36602,-4.17496 3.87943,-2.29623 9.78557,-5.03052 13.12475,-6.0762 5.77724,-1.80916 6.35014,-1.81082 11.83083,-0.0343 12.46042,4.03902 23.12188,9.83449 26.06822,14.17042 1.5484,2.27868 2.81527,4.92606 2.81527,5.88307 0,0.95701 1.45197,3.7444 3.22659,6.1942 2.45934,3.39502 3.2266,5.61746 3.2266,9.34623 0,9.02234 -6.51649,17.69573 -13.3203,17.72918 -4.50821,0.0222 -5.77758,1.00864 -6.21109,4.82691 -0.35319,3.11092 -0.53749,3.21252 -5.29555,2.91918 -4.83226,-0.29791 -4.96908,-0.21641 -6.9275,4.12659 -2.05453,4.55614 -3.34166,4.93014 -9.18273,2.66822 -1.10432,-0.42764 -2.18047,0.28389 -3.13945,2.07574 -1.95191,3.64719 -4.44841,3.44248 -12.42615,-1.01892 -7.14814,-3.99748 -12.4805,-9.29686 -15.29634,-15.20172 -0.95445,-2.00149 -2.11727,-3.63907 -2.58406,-3.63907 -1.66056,0 -4.13054,6.41557 -4.13054,10.72874 0,4.73179 6.45925,19.04323 9.04223,20.03441 1.98675,0.76239 8.21919,9.60953 11.02395,15.64883 4.28708,9.23111 6.7903,32.04161 4.56485,41.59693 -2.71871,11.67316 -6.75502,22.39072 -9.58822,25.45953 -1.63838,1.77462 -4.94383,7.34049 -7.34545,12.3686 -6.65857,13.94058 -14.26227,25.07621 -17.9928,26.35049 -1.9776,0.6755 -6.34886,0.73727 -11.75293,0.16608 z m -13.72524,-34.61476 c 2.45171,-1.71723 4.56697,-7.54271 4.57723,-12.60577 0.009,-4.07564 -3.52021,-3.93977 -10.05255,0.38706 -7.15377,4.73847 -8.31908,7.84236 -4.70021,12.5193 1.43893,1.85964 7.34026,1.68532 10.17553,-0.30059 z m -51.38218,-1.51088 c 2.03607,-3.80441 1.30874,-8.59659 -1.7325,-11.41513 -3.66504,-3.39664 -4.27097,-3.32712 -6.36939,0.73078 -1.24535,2.40825 -1.54098,4.70733 -1.03725,8.06648 0.67317,4.48901 0.86755,4.69822 4.36516,4.69822 2.51838,0 4.00802,-0.64913 4.77398,-2.08035 z m 33.34928,-3.94287 c 8.30164,-5.49376 8.81146,-9.01723 2.50171,-17.28972 -2.68776,-3.52384 -3.2266,-3.76043 -7.25851,-3.18695 -2.39536,0.34071 -5.60978,0.91852 -7.14316,1.28401 -1.89035,0.4506 -3.37972,0.0728 -4.62598,-1.17347 -2.6696,-2.66961 -8.97098,-1.40816 -12.10744,2.42372 -3.51666,4.29641 -3.53463,13.37601 -0.0334,16.87725 2.32045,2.32045 2.8816,2.41411 8.08148,1.34893 4.81437,-0.98621 5.84102,-0.89152 7.41664,0.6841 2.67254,2.67255 8.2917,2.25955 13.16865,-0.96787 z m 4.51155,-41.03122 c 3.91199,-3.99291 8.61686,-10.16376 10.45527,-13.71301 3.09814,-5.98127 3.34275,-7.25461 3.34489,-17.41224 0.002,-8.52343 -0.71312,-13.88881 -3.2167,-24.1414 -1.77046,-7.25029 -3.54385,-17.07741 -3.94088,-21.83804 -0.71556,-8.58019 -3.26676,-16.38209 -6.1354,-18.76285 -5.46,-4.5314 -12.81451,10.98255 -26.98622,56.92601 l -6.15184,19.94374 6.22985,10.36854 c 5.81623,9.68013 6.62573,10.54523 12.19249,13.02997 3.27945,1.46379 6.21761,2.70591 6.52925,2.76028 0.31163,0.0543 3.76732,-3.1681 7.67929,-7.161 z m 97.93147,-70.26596 c 13.29519,-6.90077 23.58099,-27.96253 17.86999,-36.59156 -0.98203,-1.4838 -4.61562,-3.71872 -8.56241,-5.2665 -13.13412,-5.15071 -31.63095,-3.18075 -42.45371,4.52144 -4.35042,3.09604 -4.40055,3.20782 -3.90999,8.71829 0.51324,5.7654 6.20777,20.25167 10.12149,25.74797 1.2241,1.7191 3.2548,3.57477 4.51266,4.1237 2.9768,1.2991 19.25774,0.38902 22.42197,-1.25334 z m -169.19038,-7.0526 c 2.7139,-1.56096 5.7967,-3.58581 6.85064,-4.49967 3.29272,-2.85507 8.30127,-12.66275 8.30127,-16.25544 0,-6.21009 -4.14493,-13.83581 -9.56744,-17.60187 -4.49295,-3.12046 -5.83021,-3.47449 -14.41949,-3.81743 -13.31153,-0.53149 -15.43926,0.0887 -22.51757,6.5632 l -6.17213,5.64563 1.96541,8.18257 c 2.35322,9.7971 6.48021,15.49711 15.14418,20.91646 7.54118,4.71703 13.29589,4.9613 20.41513,0.86655 z"
       id="path27258"
       transform="scale(0.26458333)" />
    <path
       style="fill:#0a0b09;fill-opacity:1;fill-rule:evenodd;stroke:none;stroke-width:1.48372"
       d="m 294.38839,514.0866 c -6.94779,-4.2252 -12.91507,-11.06736 -13.58641,-15.57836 -0.35214,-2.36616 -1.03742,-6.6018 -1.52285,-9.41251 -1.09032,-6.31322 0.16747,-7.73878 8.38254,-9.50059 12.90494,-2.76762 24.17477,1.64796 28.63046,11.21755 3.33768,7.16844 3.25356,9.75202 -0.53248,16.35264 -4.04233,7.04744 -4.85776,7.60972 -12.05723,8.31412 -4.73518,0.46329 -6.7597,0.16054 -9.31403,-1.39285 z"
       id="path30883"
       transform="scale(0.26458333)" />
    <path
       style="fill:#0a0b09;fill-opacity:1;fill-rule:evenodd;stroke:none;stroke-width:1.48372"
       d="m 459.25139,520.49392 c -10.76784,-2.12498 -12.33067,-3.19789 -15.57511,-10.69261 -1.66449,-3.84502 -3.33361,-8.9269 -3.70916,-11.29307 -0.66605,-4.19648 -0.55652,-4.38713 4.46084,-7.76421 6.96272,-4.68646 17.06165,-7.14591 26.63276,-6.48601 10.72012,0.73911 13.21312,2.1522 14.08785,7.98532 0.38946,2.59711 0.39681,6.27914 0.0163,8.18229 -1.0097,5.05046 -7.55049,14.32784 -12.20201,17.30718 -5.00506,3.20579 -8.19902,3.84897 -13.71149,2.76111 z"
       id="path30922"
       transform="scale(0.26458333)" />
    <path
       style="fill:#f9f9f9;fill-opacity:1;fill-rule:evenodd;stroke:none;stroke-width:0.370931"
       d="m 292.86056,520.78546 c -1.4991,-0.36958 -2.81263,-0.95398 -4.571,-2.03366 -5.53754,-3.40019 -7.25388,-4.82912 -10.91222,-9.08493 -3.89501,-4.53113 -3.58782,-3.76859 -5.79507,-14.38522 -0.35358,-1.70068 -0.77292,-3.43276 -0.93187,-3.84908 -0.15895,-0.41631 -0.289,-0.84669 -0.289,-0.9564 0,-0.18994 5.45481,-5.11386 6.07874,-5.48714 0.56356,-0.33716 1.93617,6.25103 2.22843,10.69595 0.22637,3.44268 0.38839,4.37085 1.10656,6.33897 0.46275,1.26816 1.2868,2.89509 1.83121,3.61541 1.48779,1.9685 9.43027,8.5345 12.51685,10.34762 l 2.6545,1.55931 4.80699,-0.14849 c 2.64384,-0.0817 4.80698,-0.0809 4.80698,0.002 0,0.0825 -1.42216,0.92773 -3.16035,1.87819 -3.12262,1.70747 -3.19085,1.72988 -5.71376,1.8773 -2.00005,0.11686 -3.00926,0.0368 -4.65699,-0.36943 z"
       id="path42696"
       transform="scale(0.26458333)" />
    <path
       style="fill:#f9f9f9;fill-opacity:1;fill-rule:evenodd;stroke:none;stroke-width:0.370931"
       d="m 454.58406,526.77413 c -1.53183,-0.58268 -2.86851,-1.16126 -2.97039,-1.28574 -0.10187,-0.12448 -0.7306,-0.89182 -1.39717,-1.70519 -1.35699,-1.65583 -2.78384,-4.00052 -2.56668,-4.21769 0.23982,-0.23981 5.36275,0.95664 7.18979,1.67916 1.12352,0.44431 3.10005,0.86054 5.68114,1.19635 l 3.95819,0.51499 3.1672,-0.61255 3.1672,-0.61254 3.40052,-2.47095 c 2.86651,-2.08292 3.76708,-2.9246 5.73483,-5.35981 1.41786,-1.7547 3.15663,-4.36677 4.42882,-6.65323 2.06073,-3.70368 2.1016,-3.8142 2.53519,-6.85651 0.71346,-5.00612 0.54158,-7.61497 -0.80091,-12.156 -0.11565,-0.39116 0.21906,-0.33319 2.24753,0.38924 l 2.38342,0.84885 1.23029,3.10829 1.23029,3.10829 -0.48905,3.16311 c -0.82122,5.3116 -1.05486,6.13684 -2.41468,8.52917 -0.71451,1.25702 -1.54561,2.86108 -1.8469,3.56457 -0.30129,0.70348 -1.48785,2.73677 -2.6368,4.51841 l -2.08899,3.23934 -4.67419,3.50789 -4.67419,3.50789 -5.54695,0.91995 c -3.05081,0.50597 -6.87791,0.98164 -8.50465,1.05703 -2.93833,0.13619 -2.97595,0.13015 -5.74286,-0.92232 z"
       id="path42735"
       transform="scale(0.26458333)" />
    <path
       style="fill:#f9f9f9;fill-opacity:1;fill-rule:evenodd;stroke:none;stroke-width:0.370931"
       d="m 456.81818,527.5261 c -0.059,-0.0955 -0.67864,-0.33362 -1.37692,-0.52912 -1.50642,-0.42177 -3.63131,-1.41572 -4.15325,-1.94274 -0.20459,-0.20659 -0.61397,-0.71031 -0.90974,-1.11939 -0.29577,-0.40908 -0.92486,-1.26073 -1.39797,-1.89254 -0.47312,-0.63183 -0.93605,-1.45094 -1.02874,-1.82026 -0.19181,-0.76423 0.11706,-0.79267 2.2741,-0.20943 0.6555,0.17724 1.44198,0.35615 1.74774,0.39757 0.30576,0.0414 0.75822,0.16113 1.00548,0.26602 0.24725,0.10489 0.61024,0.22329 0.80664,0.26312 0.19641,0.0398 0.6789,0.20485 1.07221,0.36671 0.93599,0.3852 4.23962,1.05243 6.27584,1.26752 0.88731,0.0937 1.97629,0.22387 2.41994,0.28922 0.44366,0.0653 2.27972,-0.14274 4.08013,-0.46241 2.45579,-0.43602 3.43247,-0.72863 3.90997,-1.17139 0.35007,-0.3246 0.7661,-0.63893 0.92452,-0.6985 0.15841,-0.0596 0.63737,-0.38159 1.06435,-0.7156 0.42699,-0.334 1.50232,-1.16192 2.38963,-1.83982 2.34706,-1.79311 5.76018,-5.83694 7.23933,-8.57707 0.39916,-0.73943 1.0032,-1.8284 1.34232,-2.41995 0.33912,-0.59154 0.93114,-1.63338 1.31559,-2.3152 1.4439,-2.56072 1.95204,-9.80361 0.97867,-13.94963 -0.31749,-1.35234 -0.52637,-2.50969 -0.46417,-2.57189 0.1506,-0.1506 3.96221,1.10413 4.24712,1.39809 0.29403,0.30336 2.33768,5.4609 2.43627,6.14838 0.0422,0.29422 -0.009,1.01894 -0.11459,1.61048 -0.10522,0.59154 -0.24374,1.50005 -0.30782,2.01891 -0.36437,2.95002 -1.47283,6.9371 -2.1672,7.79531 -0.17948,0.22182 -0.66398,1.1293 -1.07665,2.01662 -0.41268,0.88731 -1.51579,2.8674 -2.45137,4.4002 -0.93558,1.5328 -1.70442,2.86377 -1.70853,2.95771 -0.0306,0.69938 -2.24376,2.73416 -6.19937,5.6998 -2.55188,1.91321 -4.70997,3.47981 -4.79577,3.48134 -0.0858,0.002 -1.54747,0.24763 -3.24816,0.54687 -5.48456,0.96504 -5.42296,0.95657 -8.73868,1.2018 -3.63681,0.26898 -5.27173,0.30211 -5.39092,0.10927 z"
       id="path42774"
       transform="scale(0.26458333)" />
    <path
       style="fill:#f9f9f9;fill-opacity:1;fill-rule:evenodd;stroke:none;stroke-width:0.185465"
       d="m 460.79747,521.27893 c -3.40695,-0.43449 -3.63609,-0.48218 -5.24155,-1.09097 -1.80758,-0.68543 -1.88858,-0.88364 -0.18533,-0.45351 1.83646,0.46378 5.16921,1.07246 6.7146,1.22633 2.80285,0.27908 5.32763,-0.2045 8.05595,-1.54298 2.81679,-1.38189 4.55623,-2.7014 6.90806,-5.24035 3.80669,-4.10957 7.42808,-10.16452 8.1554,-13.63581 0.28418,-1.35632 0.378,-4.28625 0.20486,-6.39789 -0.60509,-7.38008 -2.64276,-8.93834 -12.85562,-9.83098 -3.00584,-0.26273 -8.05925,-0.19488 -10.5464,0.1416 -6.96372,0.9421 -12.93993,3.09791 -18.01106,6.49718 -3.31007,2.21879 -4.04728,2.95139 -4.29436,4.26743 -0.27552,1.4675 0.28919,4.43921 1.59585,8.39803 1.84835,5.60001 3.80159,9.8977 5.35344,11.77917 1.29244,1.56695 2.63177,2.44971 5.00208,3.29687 0.77754,0.27789 1.31817,0.50839 1.20141,0.51221 -0.19386,0.006 -5.69094,-1.12887 -6.1838,-1.27702 -0.12671,-0.0381 -0.52449,-0.85965 -0.99017,-2.04507 -0.42811,-1.08977 -1.48897,-3.46361 -2.35748,-5.27521 -0.86851,-1.8116 -2.00504,-4.44328 -2.52563,-5.8482 -0.90956,-2.45464 -0.9553,-2.63575 -1.17128,-4.63822 -0.12362,-1.14611 -0.25436,-3.05182 -0.29052,-4.2349 l -0.0658,-2.15106 3.87354,-2.90308 3.87354,-2.90308 3.89879,-1.29365 c 7.31439,-2.42697 12.70817,-3.38907 18.68734,-3.33332 l 2.95771,0.0276 3.4888,0.73753 3.48881,0.73753 2.42661,1.1483 c 1.33464,0.63156 2.47739,1.19739 2.53946,1.25739 0.0621,0.06 0.47648,1.55263 0.92093,3.31695 l 0.80809,3.20785 -0.0913,2.01662 c -0.0502,1.10914 -0.2611,3.22659 -0.46869,4.70544 l -0.37744,2.68883 -1.10114,1.88218 c -0.60563,1.03519 -1.50216,2.63841 -1.99228,3.56269 -0.74323,1.4016 -1.27977,2.15381 -3.23269,4.53217 l -2.34155,2.85165 -3.25399,2.33775 -3.25399,2.33775 -2.67863,0.49679 c -1.47325,0.27323 -2.76938,0.51682 -2.8803,0.54131 -0.11091,0.0245 -1.80487,-0.15994 -3.76435,-0.40983 z"
       id="path42813"
       transform="scale(0.26458333)" />
    <path
       style="fill:none;stroke:none;stroke-width:0.264583px;stroke-linecap:butt;stroke-linejoin:miter;stroke-opacity:1"
       d="m 120.59458,90.482623 1.56263,6.707621 2.20973,11.114136 -2.34661,4.70789 -5.72965,7.68222 -4.14884,6.06972"
       id="path83672" />
    <path
       style="fill:none;stroke:none;stroke-width:0.264583px;stroke-linecap:butt;stroke-linejoin:miter;stroke-opacity:1"
       d="m 88.557324,90.51954 -1.423287,8.474662 -0.801758,4.338298 0.635539,9.82937 5.477148,11.70818"
       id="path83707" />
    <path
       style="fill:#cbc3ba;fill-opacity:1;fill-rule:evenodd;stroke:none;stroke-width:1.48372"
       d="m 412.57486,475.4236 c -4.55641,-1.11854 -8.37164,-2.69359 -8.92656,-3.68517 -0.58459,-1.0446 -2.37299,-1.73174 -4.50716,-1.73174 -3.18927,0 -4.14874,-0.84818 -9.73314,-8.60424 -3.40731,-4.73233 -6.5789,-8.60424 -7.04798,-8.60424 -0.46908,0 -3.64512,3.02493 -7.05788,6.72206 -6.07418,6.58033 -6.40587,6.76976 -15.73075,8.98366 l -9.52574,2.2616 -1.99269,-4.41266 c -1.09598,-2.42696 -5.65983,-12.21943 -10.14189,-21.76105 l -8.1492,-17.3484 -1.20837,-18.1441 -1.20837,-18.1441 4.30507,-24.62648 4.30507,-24.62648 -5.30369,-7.85974 c -4.64062,-6.87709 -5.3037,-8.5482 -5.3037,-13.36654 0,-4.91521 0.60661,-6.36203 5.64654,-13.46763 4.65706,-6.56581 6.87159,-8.62171 12.63748,-11.73223 3.84502,-2.07427 8.12969,-4.66611 9.52149,-5.75965 2.45006,-1.92502 2.92286,-1.9276 14.8647,-0.0813 10.01591,1.54856 13.31602,2.53705 17.55817,5.25923 l 5.22401,3.35224 4.39877,-2.77683 c 7.62448,-4.81312 20.77173,-5.7192 45.85766,-3.16041 l 6.54251,0.66734 1.91189,12.1909 c 1.42554,9.08975 1.71432,14.6872 1.13521,22.00405 -0.73193,9.24775 -0.63735,9.96146 1.64152,12.3872 2.55758,2.72242 7.17721,21.06591 13.47454,53.50435 l 3.08475,15.88995 -4.46003,8.99291 c -2.45301,4.94611 -9.55539,15.85963 -15.78305,24.25229 -6.22765,8.39266 -14.36549,19.80511 -18.08408,25.36099 -3.71858,5.55588 -7.48705,10.08271 -8.37436,10.05962 -0.88731,-0.0231 -5.19414,-0.92103 -9.57074,-1.99543 z"
       id="path88342"
       transform="scale(0.26458333)" />
    <path
       style="fill:#d3cfcc;fill-opacity:1;fill-rule:evenodd;stroke:none;stroke-width:1.48372"
       d="m 287.62681,609.92512 c -2.11302,-0.94204 -7.1949,-4.093 -11.29306,-7.00212 -8.99466,-6.38499 -18.55252,-19.14843 -24.63106,-32.892 -12.41934,-28.08013 -13.25806,-30.58098 -14.50719,-43.25652 -0.65764,-6.6733 -2.87187,-23.29716 -4.92052,-36.9419 -2.04865,-13.64475 -3.72481,-26.73254 -3.72481,-29.084 0,-7.23293 3.22529,-29.53279 5.58326,-38.60298 1.23026,-4.73233 2.77626,-13.48718 3.43556,-19.45522 l 1.19871,-10.85098 12.3686,4.60505 c 6.80273,2.53278 13.16959,4.63279 14.14858,4.66668 1.03127,0.0357 3.01005,-2.08726 4.70435,-5.04714 1.6084,-2.80982 5.50327,-7.7707 8.65526,-11.02418 3.15468,-3.25626 7.01583,-8.7343 8.58931,-12.18615 l 2.85842,-6.27073 -2.65797,-2.87127 c -22.5059,-24.31203 -22.34231,-24.09963 -29.54699,-38.36378 -3.88417,-7.69004 -10.0663,-22.46187 -13.73809,-32.82629 -5.26493,-14.86146 -8.21907,-21.34019 -13.97681,-30.65261 -8.58902,-13.89166 -21.46238,-38.03656 -20.69117,-38.80777 0.29581,-0.29582 4.68155,4.45502 9.74607,10.55743 5.06453,6.1024 12.50096,13.92247 16.5254,17.37793 19.74177,16.95063 30.52142,27.86581 34.86542,35.30375 6.35721,10.88505 11.66947,18.22689 22.15724,30.62252 8.6047,10.17001 9.85999,11.21211 17.95434,14.90504 18.69606,8.5298 22.14693,10.53035 22.14693,12.8391 0,1.21438 -1.71894,12.12602 -3.81987,24.2481 l -3.81987,22.04014 1.24666,18.71032 1.24668,18.71031 9.92013,21.0843 9.92015,21.08431 -6.80101,1.07553 c -5.85731,0.92629 -7.41651,1.69209 -11.23673,5.5189 l -4.43571,4.44337 -10.33698,-4.89667 c -13.87376,-6.57207 -20.94867,-8.01819 -29.00434,-5.92853 -10.61037,2.75235 -18.70128,10.58785 -25.10655,24.314 -4.51937,9.68477 -5.77794,14.47495 -4.81312,18.31909 0.91883,3.66092 5.86406,8.24916 11.43322,10.60786 11.14054,4.71836 15.05743,6.65224 15.05743,7.43428 0,1.38088 -2.41193,2.42519 -5.77118,2.49877 -4.95864,0.10863 -4.45361,2.13977 1.17566,4.72832 12.82912,5.8993 24.77704,4.99115 33.87639,-2.57494 2.88009,-2.39479 10.23567,-5.4091 11.09717,-4.54761 0.24161,0.24162 -4.6307,8.08687 -10.82737,17.4339 -6.19666,9.34703 -11.26666,17.45711 -11.26666,18.02239 0,0.56529 -1.75834,4.747 -3.90743,9.29267 -3.65187,7.72432 -3.95083,9.15068 -4.571,21.80849 l -0.66358,13.54363 z"
       id="path91772"
       transform="scale(0.26458333)" />
    <path
       style="fill:#d3cfcc;fill-opacity:1;fill-rule:evenodd;stroke:none;stroke-width:1.48372"
       d="m 452.26045,637.05243 c -5.27026,-0.87033 -5.26262,-0.82186 -1.86245,-11.8192 2.96248,-9.58168 3.24944,-11.79678 3.07541,-23.73986 -0.10556,-7.24469 -0.66308,-15.71449 -1.23891,-18.82178 -1.42688,-7.69961 -7.50864,-19.73333 -12.92172,-25.56765 -8.11104,-8.74223 -12.7335,-20.93749 -9.73247,-25.67676 0.72673,-1.14766 1.57482,-0.51876 3.62598,2.68882 1.47255,2.30278 4.0632,5.4841 5.757,7.06962 2.9966,2.80504 17.94469,10.56137 20.354,10.56137 0.66117,0 1.76673,-1.23918 2.45681,-2.75375 1.1552,-2.53539 1.63176,-2.6972 6.00988,-2.04066 4.73755,0.71044 4.76371,0.69636 7.05653,-3.79794 1.98136,-3.88378 2.66519,-4.4197 4.91806,-3.85426 4.77438,1.19829 7.83857,-0.3082 8.20267,-4.03282 0.30033,-3.07219 0.74886,-3.44134 5.07139,-4.17382 8.38404,-1.42072 14.01219,-9.41168 14.05623,-19.95733 0.0192,-4.59965 -0.57893,-6.48764 -3.20297,-10.11003 -1.77462,-2.4498 -3.22659,-5.27691 -3.22659,-6.28249 0,-1.00558 -1.49099,-3.88658 -3.31331,-6.40222 -2.56808,-3.54513 -5.28956,-5.49226 -12.09972,-8.65693 -4.83252,-2.24566 -11.5541,-4.9415 -14.93684,-5.99074 -5.8441,-1.81271 -6.48184,-1.8156 -12.80373,-0.058 -3.65931,1.01737 -9.97715,3.82445 -14.03965,6.23793 l -7.38637,4.38817 -4.81598,-2.55487 c -2.64879,-1.40517 -4.81598,-2.93725 -4.81598,-3.40461 0,-1.38473 11.87225,-18.62874 24.06825,-34.95825 11.45443,-15.33663 20.02849,-30.30445 20.02849,-34.96395 0,-2.76663 -7.15045,-38.75659 -10.68218,-53.76602 -1.2233,-5.19889 -2.22418,-10.05365 -2.22418,-10.78834 0,-0.73468 3.50891,-3.08327 7.79759,-5.21907 4.28868,-2.13581 11.70051,-7.29386 16.47073,-11.46233 7.24866,-6.33426 10.06126,-9.84221 17.12489,-21.35865 9.39814,-15.32257 19.05304,-26.09168 67.79841,-75.62258 39.29745,-39.93074 57.32608,-60.98536 69.32107,-80.95618 7.36862,-12.26824 12.13443,-18.79451 18.98798,-26.00198 7.28914,-7.66557 9.36517,-9.30617 10.20735,-8.06648 1.3612,2.00371 0.57491,12.37618 -1.67136,22.04767 l -1.76169,7.58511 -12.67243,9.27384 c -12.63791,9.24858 -12.73521,9.3539 -35.71862,38.66269 -12.6754,16.16387 -30.08583,37.61666 -38.68982,47.67287 -19.47224,22.75883 -31.80291,42.83372 -41.89768,68.21129 -8.22362,20.67364 -8.10391,20.44844 -16.03714,30.16961 l -6.5583,8.03637 v 8.77291 8.77293 l 8.11179,6.10542 c 9.39231,7.06923 16.35182,16.84286 19.24725,27.03001 0.99765,3.51012 2.68858,8.80199 3.75761,11.7597 1.06903,2.95771 3.5,14.3879 5.40216,25.40043 l 3.45846,20.02277 -4.29695,13.85643 c -2.36331,7.62103 -5.09311,18.69631 -6.06619,24.61172 -5.91179,35.93766 -13.63045,59.03814 -25.07354,75.04036 -3.48112,4.86805 -11.33684,16.11083 -17.45716,24.98395 -11.88746,17.23421 -25.4199,34.04529 -32.65701,40.56917 -4.35604,3.92674 -6.08884,4.38794 -12.50505,3.32836 z"
       id="path91811"
       transform="scale(0.26458333)" />
    <path
       style="fill:#c8b19e;fill-opacity:1;fill-rule:evenodd;stroke:none;stroke-width:1.48372"
       d="m 251.17029,394.19321 -12.3346,-4.58723 -1.86112,-7.37454 c -1.04986,-4.16001 -1.61992,-9.25738 -1.3078,-11.69398 0.31329,-2.44572 -0.42315,-8.98152 -1.69769,-15.06682 -1.23805,-5.91106 -3.4356,-18.55226 -4.88346,-28.09156 -1.44786,-9.53931 -3.09624,-18.564 -3.66306,-20.05487 -0.56683,-1.49087 -3.70918,-11.83912 -6.98301,-22.99611 -7.79721,-26.57237 -24.60415,-64.47879 -38.81763,-87.54938 -7.20993,-11.7028 -11.53382,-20.2324 -11.02706,-21.7527 0.2183,-0.65488 4.87613,4.34431 10.35075,11.10931 5.47462,6.76499 12.72928,15.68791 16.12147,19.8287 3.81305,4.65454 9.90314,14.71415 15.9526,26.35049 5.38175,10.35198 13.16677,24.28964 17.30004,30.97257 6.05063,9.78305 8.7256,15.65133 13.7274,30.11485 3.41681,9.88023 9.47958,24.4979 13.47282,32.48371 6.65538,13.30962 8.28697,15.63472 19.57802,27.89978 l 12.31756,13.38012 -2.41768,5.21832 c -1.32973,2.87008 -5.26355,8.22275 -8.74182,11.89484 -3.47827,3.67209 -7.27528,8.49147 -8.4378,10.70975 -1.16251,2.21828 -2.60858,3.97896 -3.21349,3.91261 -0.60491,-0.0664 -6.65041,-2.18489 -13.43444,-4.70786 z"
       id="path103041"
       transform="scale(0.26458333)" />
    <path
       style="fill:#c8b19e;fill-opacity:1;fill-rule:evenodd;stroke:none;stroke-width:1.48372"
       d="M 539.45138,395.4944 C 535.97873,385.08665 529.24726,375.75386 520.29122,368.93 l -7.7941,-5.93856 -0.003,-7.55374 -0.003,-7.55373 6.97898,-8.57922 c 6.14432,-7.55318 7.87766,-10.81763 14.49332,-27.29574 11.13116,-27.72524 22.95947,-47.19188 42.50263,-69.94941 8.41268,-9.79635 22.67415,-27.24933 31.69215,-38.78439 9.01799,-11.53507 19.37442,-24.76175 23.01427,-29.39263 4.54678,-5.78474 9.98119,-10.9259 17.36463,-16.42757 5.91071,-4.40429 10.89024,-7.57726 11.06564,-7.05106 0.1754,0.5262 -1.17078,5.01468 -2.99151,9.97439 -1.82074,4.95972 -5.90508,18.45544 -9.07634,29.9905 -5.30695,19.30345 -6.80943,23.1559 -18.87585,48.39886 -14.4032,30.1315 -22.69574,52.84937 -34.53265,94.60415 -5.69485,20.08865 -7.03569,23.66652 -10.09253,26.93076 -1.93884,2.0704 -6.92001,8.36225 -11.06926,13.9819 -8.93414,12.10017 -10.93803,14.05314 -22.48394,21.91258 l -8.79603,5.98756 z"
       id="path103080"
       transform="scale(0.26458333)" />
    <path
       style="fill:#4f4c4c;fill-opacity:1;fill-rule:evenodd;stroke:none;stroke-width:1.48372"
       d="m 316.03632,331.9276 c -11.64543,-5.46506 -12.26069,-5.93197 -20.80129,-15.78545 -10.00676,-11.54502 -15.92127,-19.64288 -22.52849,-30.8449 -4.71941,-8.0014 -14.14615,-17.70292 -32.67084,-33.62319 -5.16234,-4.43656 -13.64808,-13.14835 -18.85718,-19.35954 -5.20911,-6.21119 -12.64313,-14.74276 -16.52005,-18.95906 -3.87692,-4.21629 -10.82221,-12.4441 -15.43399,-18.28401 -4.61177,-5.83991 -12.33133,-15.21591 -17.15456,-20.83556 -9.02196,-10.51166 -16.72234,-23.48145 -23.21949,-39.10869 l -3.51567,-8.45607 1.88037,-15.74336 c 1.0342,-8.65884 2.91734,-19.337164 4.18474,-23.729606 l 2.30438,-7.986258 1.87537,7.431052 c 1.03145,4.087079 2.21389,12.484602 2.62763,18.661162 0.72127,10.76753 1.00949,11.77435 6.99718,24.44298 4.30224,9.10258 9.16719,17.10341 15.63876,25.71931 8.54396,11.37496 10.81072,13.58628 25.05493,24.44216 19.81836,15.10408 25.31348,19.72638 42.54935,35.79099 25.6997,23.95329 39.71155,36.26885 50.04435,43.9859 8.87179,6.62593 12.19735,8.35386 24.73719,12.85333 7.96811,2.85907 17.97065,7.14953 22.22787,9.53436 7.68627,4.30574 7.72387,4.34874 5.37765,6.15028 -1.29951,0.99782 -5.35685,3.48532 -9.01632,5.52776 -5.24577,2.92782 -7.91967,5.44724 -12.63748,11.9074 -5.7281,7.8436 -5.98391,8.47727 -5.98391,14.82333 0,5.60689 0.49769,7.35283 3.22659,11.31914 5.1662,7.50882 5.33921,7.50671 -10.38709,0.12654 z"
       id="path106161"
       transform="scale(0.26458333)" />
    <path
       style="fill:#4f4c4c;fill-opacity:1;fill-rule:evenodd;stroke:none;stroke-width:1.48372"
       d="m 453.93499,337.78415 c -1.63715,-1.80902 -1.78814,-3.40243 -1.14658,-12.09971 0.53346,-7.23179 0.26473,-12.70729 -0.96664,-19.6961 -2.55076,-14.47705 -2.98021,-13.4115 7.50015,-18.60923 18.98585,-9.41601 65.27958,-38.10061 76.82988,-47.60545 6.21119,-5.11124 22.18281,-17.41626 35.4925,-27.34451 13.30968,-9.92824 24.80441,-18.52863 25.54384,-19.11199 0.89863,-0.70895 1.34441,-0.67927 1.34441,0.0895 0,0.63258 -13.67631,15.0905 -30.39179,32.12872 -53.70436,54.74123 -61.72125,63.65262 -71.1109,79.04527 -7.17671,11.76494 -9.54304,14.67946 -17.13704,21.10708 -7.62638,6.45502 -20.22858,14.17981 -23.13289,14.17981 -0.51673,0 -1.78795,-0.93752 -2.82494,-2.08339 z"
       id="path106200"
       transform="scale(0.26458333)" />
    <path
       style="fill:#bbaf9e;fill-opacity:1;fill-rule:evenodd;stroke:none;stroke-width:1.48372"
       d="m 255.49624,806.28103 -4.78206,-2.32221 -5.12151,-23.66167 c -5.69084,-26.29206 -14.49313,-54.48269 -32.33394,-103.55424 l -11.05905,-30.41818 -25.27496,-28.28188 -25.27496,-28.28187 -5.69865,-34.42831 c -7.50585,-45.34659 -8.06384,-55.06684 -6.12612,-106.71784 0.85195,-22.70904 1.71328,-41.45345 1.91407,-41.65424 0.2008,-0.20079 2.50342,1.81373 5.11695,4.47673 3.51275,3.57923 4.47688,5.22429 3.69728,6.30859 -0.58003,0.80673 -2.45305,3.22883 -4.16228,5.38245 -1.70923,2.15362 -2.77333,4.25004 -2.36466,4.6587 0.40867,0.40867 5.79869,-1.90345 11.97784,-5.13804 8.6173,-4.51089 13.92923,-8.31934 22.79973,-16.34656 9.82787,-8.89358 12.50198,-10.73454 17.8036,-12.2567 6.0663,-1.74172 6.65014,-2.26039 21.13027,-18.77159 l 14.89159,-16.98037 0.72305,4.82167 c 0.39768,2.65192 0.43131,6.14999 0.0747,7.77347 -0.35658,1.62349 0.27108,6.80256 1.39479,11.50904 1.87696,7.86133 1.92756,9.51938 0.62222,20.38808 -0.78149,6.50695 -2.19511,14.25077 -3.14137,17.20848 -1.8749,5.86034 -5.90369,33.5985 -5.90369,40.6468 0,2.41044 1.67616,15.54649 3.72481,29.19124 2.04865,13.64474 4.2711,30.37449 4.93878,37.17721 1.03374,10.53247 1.90612,14.04507 5.87656,23.66167 9.10962,22.06399 12.97033,29.74289 19.77802,39.33824 5.55396,7.82822 8.47754,10.78852 15.05743,15.24656 4.49089,3.0427 9.94618,6.35693 12.12285,7.36495 4.37853,2.02772 4.52672,2.39462 6.25544,15.48842 0.88269,6.68569 2.66939,12.60975 6.64979,22.04837 11.23297,26.63643 10.36694,25.13393 15.28011,26.51 2.43381,0.68166 7.60924,1.15005 11.50096,1.04087 5.43865,-0.15258 10.00948,0.69071 19.75482,3.64466 12.4601,3.77683 12.86709,3.82653 23.57676,2.87905 5.99378,-0.53027 14.09792,-1.85407 18.00921,-2.94179 6.07854,-1.69042 8.42173,-1.8209 16.13295,-0.89837 13.42705,1.60636 14.89651,0.73777 23.74699,-14.03673 3.91926,-6.54256 7.77522,-13.78289 8.56882,-16.08961 0.7936,-2.30672 3.13687,-6.03064 5.20726,-8.27536 l 3.76436,-4.08133 6.99095,1.37813 c 6.42891,1.26735 7.2288,1.21335 9.94959,-0.67165 5.53466,-3.83452 25.14391,-28.19004 39.46511,-49.01736 7.85304,-11.42068 14.50075,-20.54237 14.77271,-20.27042 0.27195,0.27195 -3.92123,13.73005 -9.31817,29.90688 -9.10132,27.2804 -10.30454,30.15307 -16.59915,39.62996 -9.77899,14.72284 -25.02627,30.64124 -40.62745,42.41563 -7.63607,5.76305 -16.41914,13.58032 -20.75577,18.47342 -17.41205,19.64642 -52.24769,53.82044 -66.37393,65.11334 -14.68678,11.74098 -14.78716,11.79842 -29.03932,16.61906 -8.60589,2.91084 -21.36917,6.13244 -32.04785,8.08922 l -17.74625,3.25189 -11.21111,7.17896 c -6.16611,3.94843 -11.73198,7.49797 -12.3686,7.88787 -0.63662,0.3899 -3.30942,-0.33608 -5.93955,-1.61329 z M 173.54137,519.93715 c 6.38974,-2.26042 7.32322,-3.63697 15.63249,-23.05252 l 3.91691,-9.15232 -2.51959,-7.46931 -2.5196,-7.46932 -5.29455,-1.37275 c -2.912,-0.75501 -5.83216,-1.38208 -6.48925,-1.39349 -0.65708,-0.0114 -6.31286,3.66204 -12.5684,8.16322 l -11.37371,8.18396 -2.31349,7.61666 c -2.66512,8.77432 -2.29094,12.41294 1.7732,17.24288 3.63381,4.31854 13.42986,11.6467 14.88304,11.1336 0.61286,-0.21639 3.70569,-1.31017 6.87295,-2.43061 z"
       id="path110215"
       transform="scale(0.26458333)" />
    <path
       style="fill:#554135;fill-opacity:1;fill-rule:evenodd;stroke:none;stroke-width:1.48372"
       d="m 157.74567,513.4729 c -3.6516,-3.3045 -6.91785,-7.11815 -7.25834,-8.47477 -0.34049,-1.35663 0.37305,-5.79796 1.58565,-9.86963 l 2.20472,-7.40304 10.39712,-7.39045 c 5.71842,-4.06475 10.935,-7.4343 11.59239,-7.48789 0.6574,-0.0536 3.22034,0.29051 5.69542,0.76469 4.33332,0.83017 4.58039,1.09975 6.66465,7.27158 l 2.1645,6.40944 -3.59669,8.29653 c -8.78604,20.26683 -8.83279,20.33956 -14.2649,22.19047 -2.7461,0.93569 -5.79218,1.70125 -6.76908,1.70125 -0.9769,0 -4.76385,-2.70368 -8.41544,-6.00818 z"
       id="path113685"
       transform="scale(0.26458333)" />
    <path
       style="fill:#554135;fill-opacity:1;fill-rule:evenodd;stroke:none;stroke-width:1.48372"
       d="m 152.34872,419.46877 2.37665,-3.2146 -7.7221,-7.96384 c -4.24716,-4.38011 -7.72211,-8.70182 -7.72211,-9.60379 0,-2.31351 15.92291,-10.53168 28.567,-14.74407 5.78901,-1.92861 16.12832,-6.14182 22.97626,-9.36269 12.14765,-5.71354 35.42272,-14.79764 36.10773,-14.09259 0.18873,0.19425 -5.46338,6.9952 -12.56024,15.11321 -12.40362,14.18836 -13.14149,14.82684 -19.05115,16.485 -5.21374,1.4629 -7.84434,3.26683 -17.31455,11.87342 -6.36986,5.78897 -14.52305,11.99046 -18.97984,14.43649 -4.29718,2.35843 -8.09234,4.28806 -8.43368,4.28806 -0.34134,0 0.44887,-1.44657 1.75603,-3.2146 z"
       id="path113724"
       transform="scale(0.26458333)" />
  </g>
</svg>
