<?xml version="1.0" encoding="UTF-8" standalone="no"?>
<!-- Created with Inkscape (http://www.inkscape.org/) -->

<svg
   width="210mm"
   height="297mm"
   viewBox="0 0 210 297"
   version="1.1"
   id="svg5"
   inkscape:version="1.1 (c68e22c387, 2021-05-23)"
   sodipodi:docname="ardwark.svg"
   xmlns:inkscape="http://www.inkscape.org/namespaces/inkscape"
   xmlns:sodipodi="http://sodipodi.sourceforge.net/DTD/sodipodi-0.dtd"
   xmlns="http://www.w3.org/2000/svg"
   xmlns:svg="http://www.w3.org/2000/svg">
  <sodipodi:namedview
     id="namedview7"
     pagecolor="#ffffff"
     bordercolor="#666666"
     borderopacity="1.0"
     inkscape:pageshadow="2"
     inkscape:pageopacity="0.0"
     inkscape:pagecheckerboard="0"
     inkscape:document-units="mm"
     showgrid="false"
     inkscape:zoom="0.65744949"
     inkscape:cx="102.66948"
     inkscape:cy="546.04955"
     inkscape:window-width="1920"
     inkscape:window-height="1002"
     inkscape:window-x="-8"
     inkscape:window-y="-8"
     inkscape:window-maximized="1"
     inkscape:current-layer="layer5" />
  <defs
     id="defs2" />
  <g
     inkscape:groupmode="layer"
     id="layer5"
     inkscape:label="bg"
     style="display:none"
     sodipodi:insensitive="true">
    <rect
       style="opacity:1;fill:#fefbf3;fill-opacity:1;fill-rule:evenodd;stroke:#575656;stroke-width:0.365001;stroke-opacity:1"
       id="rect35744"
       width="216.83273"
       height="303.85355"
       x="-5.0724998"
       y="-7.4560537" />
  </g>
  <g
     inkscape:groupmode="layer"
     id="layer2"
     inkscape:label="face"
     style="display:inline">
    <path
       style="fill:none;stroke:none;stroke-width:0.317829px;stroke-linecap:butt;stroke-linejoin:miter;stroke-opacity:1"
       d="m 128.74054,101.16386 1.48246,-2.37319 3.34696,-4.17831 6.0046,-5.53495 4.92078,-6.106751 3.67917,-5.632117 2.44587,-5.172428 0.15779,-2.36945 0.8845,-5.078995 1.4617,-6.985021 0.42771,-3.815786 0.26576,-4.279213 -0.25746,-2.986105 0.0333,-3.371048 0.30729,-2.003196 0.0706,-3.389734 1.32467,-2.982368 -0.19517,-1.390277 -0.81805,-1.106241 -0.80145,-1.801381 -2.37527,-0.590494 -4.7256,2.515206 -3.79959,3.191656 -3.70824,2.522681 -5.84265,5.306971 -3.47154,6.465535 -6.3285,10.901714 -3.07705,8.868621 -2.57043,7.549353 -3.01891,10.202838 -3.17256,9.35448 -3.73315,-0.14576 -4.22142,2.06451 -3.30544,-0.70261 -7.271132,-5.71434 -9.393089,-9.982341 -9.173006,-9.862742 -10.049191,-8.528526 -9.887245,-6.629978 -4.700699,-2.597426 -3.953235,-0.900688 -4.302051,-1.644416 -3.25976,0.08596 -2.009838,0.452214 -1.2167,0.33262 -0.290679,1.924712 1.112886,2.014406 4.140101,3.475692 3.716541,4.316586 8.558425,10.841917 9.231139,11.182013 6.004602,6.155347 6.399094,3.57286 4.069508,2.62732 3.978152,7.25411 1.943398,5.60222 -0.390341,1.63319 1.067554,4.77008 -0.120424,5.85635 -0.942631,6.16281 -0.896953,6.52533 0.0789,8.55096 0.610427,7.08593 3.654252,10.31495 2.657639,9.95992 3.398434,9.16863 0.66026,5.91988 -0.41526,4.51841 -2.13441,5.43404 -1.548907,5.5312 1.083817,3.32246 5.788667,5.05658 6.914015,3.14307 4.96231,0.37747 4.75468,-1.18099 2.42925,-1.86118 3.10195,-3.4271 2.03476,-4.3764 -0.26992,-2.69085 -0.4028,-2.53763 -0.58136,-3.74851 0.77238,-5.70687 0.21593,-5.19111 1.38696,-3.67003 1.42078,-5.37718 2.18425,-6.17777 2.90263,-6.83926 2.83205,-5.50879 1.16687,-6.02827 -0.1578,-5.98342 -1.19178,-6.30484 0.66025,-5.52373 1.16679,-12.13805 -1.19594,-7.23915 -1.27899,-8.66306 z"
       id="path995" />
    <path
       style="fill:none;stroke:none;stroke-width:0.317829px;stroke-linecap:butt;stroke-linejoin:miter;stroke-opacity:1"
       d="m 49.656868,54.796646 3.174904,3.875631 3.547057,6.149496 6.192661,10.642044 7.49932,9.812243 5.385178,8.09979 1.54156,3.86359 0.859352,1.99375 v 0"
       id="path1096" />
    <path
       style="fill:none;stroke:none;stroke-width:0.317829px;stroke-linecap:butt;stroke-linejoin:miter;stroke-opacity:1"
       d="m 133.03022,43.553318 -1.45494,5.588108 -0.78987,5.726674 -0.19085,11.442772 -0.74876,9.867739 -2.47237,9.592903 -0.77812,5.642106 -0.21141,5.79539 2.35663,3.95485"
       id="path1131" />
    <path
       style="fill:none;stroke:none;stroke-width:0.317829px;stroke-linecap:butt;stroke-linejoin:miter;stroke-opacity:1"
       d="m 123.94236,145.60551 0.0852,-0.18433 0.6335,-1.78711 1.77059,-3.25709 1.9365,-1.63978 0.68342,1.89942 0.88897,1.81023 -0.11745,3.19631 -2.08404,1.84393 -1.83372,0.94608 -1.5166,0.0721 z"
       id="path1166" />
    <path
       style="fill:none;stroke:none;stroke-width:0.317829px;stroke-linecap:butt;stroke-linejoin:miter;stroke-opacity:1"
       d="m 84.320657,141.29359 1.474758,1.50104 1.043855,2.11546 0.314183,2.4993 0.05505,2.28525 -2.240402,-0.3964 -0.471276,-0.90511 -0.491831,-2.11414 -0.339876,-1.74878 0.437509,-1.52615 z"
       id="path1168" />
    <path
       style="fill:none;stroke:none;stroke-width:0.317829px;stroke-linecap:butt;stroke-linejoin:miter;stroke-opacity:1"
       d="m 89.456988,203.5212 v 0 l 2.17904,-0.92969 2.29325,1.26716 2.426847,0.40433 2.25655,-0.7122 3.549995,1.03065 2.78362,-0.74921 3.96547,0.63689 4.23268,0.10042 3.52357,-0.85887 3.85843,0.86443"
       id="path1170" />
    <path
       style="fill:none;stroke:none;stroke-width:0.317829px;stroke-linecap:butt;stroke-linejoin:miter;stroke-opacity:1"
       d="m 109.28062,209.5494 -0.0169,0.20084 1.10038,2.12075 2.35051,-0.10908 1.51073,-1.85779 0.10571,-0.6838 -0.94916,-0.14071"
       id="path1205" />
    <path
       style="fill:none;stroke:none;stroke-width:0.317829px;stroke-linecap:butt;stroke-linejoin:miter;stroke-opacity:1"
       d="m 97.874545,208.54321 -0.0455,0.13873 0.84786,1.8545 2.116345,0.75844 2.29986,-1.34247 -0.15195,-1.85648 -1.0534,0.1427 -0.59093,0.7644"
       id="path1240" />
    <path
       style="fill:none;stroke:none;stroke-width:0.317829px;stroke-linecap:butt;stroke-linejoin:miter;stroke-opacity:1"
       d="m 95.802885,194.54743 0.4287,-0.31712 3.07137,-0.59725 3.086055,1.14693 2.24921,-0.20746 3.17121,-0.59327 3.4942,0.24576 2.82619,1.00025 0.86034,0.90908"
       id="path1275" />
    <path
       style="fill:none;stroke:none;stroke-width:0.317829px;stroke-linecap:butt;stroke-linejoin:miter;stroke-opacity:1"
       d="m 96.440055,198.98845 0.61663,-0.19028 4.476395,0.16649 3.27398,0.6633 3.92437,-0.27483 3.38409,0.27748 2.22425,-0.15856"
       id="path1310" />
    <path
       style="fill:none;stroke:none;stroke-width:0.317829px;stroke-linecap:butt;stroke-linejoin:miter;stroke-opacity:1"
       d="m 98.128435,187.61438 0.461,-0.20217 5.487955,-0.7743 2.94217,-0.49154 4.39858,0.94212 4.29288,1.7772"
       id="path1345" />
    <path
       style="fill:none;stroke:none;stroke-width:0.317829px;stroke-linecap:butt;stroke-linejoin:miter;stroke-opacity:1"
       d="m 96.222775,179.55124 4.284065,-3.06682 5.55402,0.18631 3.15065,0.0145 7.69899,1.5354"
       id="path1380" />
    <path
       style="fill:none;stroke:none;stroke-width:0.317829px;stroke-linecap:butt;stroke-linejoin:miter;stroke-opacity:1"
       d="m 100.13123,98.112 -1.118785,9.07306 -0.38759,11.78895 -1.61791,4.36305 v 0 l -0.48039,7.28339 1.95118,6.97798 -1.1525,9.51626 -0.57699,4.20053 -2.19454,13.05832 -1.567987,7.92273 0.24665,6.99251 -0.33706,2.82889"
       id="path1415" />
    <path
       style="fill:none;stroke:none;stroke-width:0.317829px;stroke-linecap:butt;stroke-linejoin:miter;stroke-opacity:1"
       d="m 111.39124,96.89586 v 0 l 1.7585,6.71349 -3.26223,4.31812 2.82766,6.16007 2.29618,6.93173 -0.36997,9.67218 -2.54577,6.73352 -1.97026,8.53584 1.98549,11.35414 1.86455,11.82597 4.20185,7.50254 2.08343,8.05668"
       id="path1502" />
    <path
       style="fill:#efd1a7;fill-opacity:1;fill-rule:evenodd;stroke:none;stroke-width:0.471569"
       d="m 119.44931,180.16816 c -0.57158,-2.37922 -1.33116,-4.23603 -2.93281,-7.16927 l -2.16146,-3.95847 -1.92595,-11.58079 -1.92595,-11.58079 0.89159,-3.94532 c 0.49037,-2.16992 1.4884,-5.56048 2.21783,-7.53457 1.24221,-3.36182 1.33999,-3.90336 1.54302,-8.54587 l 0.21676,-4.9566 -1.35032,-3.9311 c -0.74267,-2.16209 -1.88077,-5.08034 -2.5291,-6.485 l -1.17879,-2.55391 1.63451,-2.07987 1.63451,-2.07987 -0.89336,-3.32593 -0.89336,-3.32592 2.12817,-6.73918 c 1.17049,-3.706554 3.7609,-11.709086 5.75648,-17.78341 3.44595,-10.489123 3.76528,-11.279459 6.35348,-15.724392 1.49884,-2.57409 3.40802,-5.910772 4.24262,-7.414843 0.90517,-1.631244 1.42459,-2.320889 1.2873,-1.709173 -0.75064,3.344647 -1.17885,7.830729 -1.19098,12.476962 -0.0218,8.354 -0.787,15.8261 -2.15285,21.022829 -1.42341,5.415706 -1.5833,6.382187 -1.94842,11.778057 l -0.28811,4.2577 1.30464,2.23716 c 1.83033,3.1386 2.57338,5.77726 3.58905,12.74507 0.48616,3.33523 1.00644,6.71978 1.15616,7.52123 0.23567,1.26147 -0.866,15.00769 -1.44534,18.0344 -0.09,0.47002 0.13236,2.39285 0.49407,4.27293 1.36133,7.07611 0.68622,12.75017 -2.18509,18.36492 -2.3997,4.69252 -5.12262,11.67463 -6.61631,16.96556 -1.84864,6.54825 -1.90561,6.60352 -2.83199,2.74746 z m 7.7774,-32.06256 c 3.07493,-1.57692 3.72904,-3.75726 2.25748,-7.52483 l -0.94263,-2.41338 -1.0488,0.80791 c -1.14433,0.88151 -2.74996,3.39337 -3.47369,5.43428 -0.40176,1.13296 -0.38405,2.49612 0.0509,3.91913 0.19187,0.62772 1.70637,0.52068 3.15673,-0.22311 z"
       id="path12648" />
    <path
       style="fill:#efd1a7;fill-opacity:1;fill-rule:evenodd;stroke:none;stroke-width:0.471569"
       d="m 91.175618,176.4446 c -0.78471,-2.1621 -2.052535,-6.25665 -2.817396,-9.09899 -0.764862,-2.84235 -2.149674,-7.26559 -3.077366,-9.82943 -1.351933,-3.7363 -1.759558,-5.38536 -2.053753,-8.30847 -0.572795,-5.69131 -0.450481,-12.01331 0.332805,-17.20161 1.169044,-7.74346 1.42407,-12.70511 0.79516,-15.4702 -0.295988,-1.30136 -0.467329,-2.84871 -0.380756,-3.43856 0.231542,-1.57759 -1.40651,-6.06852 -3.780947,-10.36596 -1.129036,-2.04342 -2.620423,-5.08655 -3.314189,-6.76251 -1.42648,-3.44601 -5.163303,-9.204553 -10.220924,-15.750701 -2.257157,-2.92147 -5.176937,-7.430055 -8.522891,-13.160631 -2.799243,-4.79423 -5.30348,-8.959635 -5.564974,-9.256452 -0.552034,-0.626607 -0.609838,-0.998587 -0.155177,-0.998587 0.89581,0 12.262253,8.041936 16.62585,11.763051 4.218438,3.597328 17.218757,16.9009 21.764928,22.27263 0.51608,0.60979 2.70809,2.52158 4.871137,4.24842 2.87378,2.29423 3.93282,3.34232 3.93282,3.89212 0,0.41383 -0.218,2.51503 -0.48446,4.66932 -0.26646,2.1543 -0.57287,6.48668 -0.68092,9.62753 -0.16704,4.85551 -0.3172,6.03278 -1.00281,7.86218 -0.57254,1.52771 -0.87267,3.24186 -1.03507,5.91175 -0.21272,3.49717 -0.15982,3.99959 0.7562,7.18288 l 0.98492,3.4227 -0.78866,6.3234 c -0.85311,6.84017 -2.88479,19.33596 -3.792327,23.32457 -0.31057,1.36494 -0.65331,4.85309 -0.7639,7.77421 l -0.20057,5.29844 z m -3.697573,-28.97048 c -0.136409,-1.45707 -0.524077,-3.18761 -0.861481,-3.84564 -0.598685,-1.16761 -2.280556,-2.99415 -2.493085,-2.70754 -0.05864,0.0791 -0.269417,0.98105 -0.468394,2.00438 -0.278809,1.4339 -0.252178,2.33041 0.116112,3.90915 0.653294,2.80041 0.808045,2.94408 3.487416,3.23765 0.378401,0.0415 0.420202,-0.45348 0.219432,-2.598 z"
       id="path12687" />
    <path
       style="fill:#c9903b;fill-opacity:1;fill-rule:evenodd;stroke:none;stroke-width:0.471569"
       d="m 99.996375,203.63673 c -1.02386,-0.32974 -1.7566,-0.38107 -2.32964,-0.1632 -1.33156,0.50626 -2.76175,0.37292 -4.273807,-0.39848 -0.9425,-0.48083 -1.73653,-0.64984 -2.41528,-0.51409 -0.788662,0.15773 -0.969802,0.0944 -0.82314,-0.2878 0.103425,-0.26952 0.36025,-1.15342 0.57071,-1.96421 0.21047,-0.8108 0.93936,-2.92872 1.61977,-4.70649 1.37521,-3.5932 1.29572,-2.4459 1.18197,-17.05979 -0.0476,-6.1146 0.0472,-7.48558 0.7803,-11.28054 1.406727,-7.28245 2.858377,-16.34295 3.721277,-23.22646 l 0.8225,-6.56131 -0.9908,-3.33234 c -0.91545,-3.07891 -0.97422,-3.6053 -0.77267,-6.9216 0.14957,-2.46122 0.46505,-4.25295 1.0038,-5.70103 0.657,-1.76589 0.82096,-3.05359 1.00108,-7.86218 0.16903,-4.51271 1.076365,-14.69299 1.341005,-15.04621 0.0273,-0.0364 0.68851,0.0773 1.46937,0.25275 1.23913,0.27842 1.70947,0.189 3.69732,-0.70289 1.51031,-0.67763 2.83186,-1.02188 3.92296,-1.02188 h 1.64537 l 0.77654,3.22112 0.77654,3.22111 -1.36444,1.82095 c -0.75044,1.00152 -1.47109,2.00018 -1.60145,2.21925 -0.13036,0.21907 0.43395,1.84396 1.25403,3.61087 0.82008,1.76691 1.99356,4.72092 2.60774,6.56446 l 1.1167,3.35191 -0.24678,4.78957 c -0.22561,4.37904 -0.35727,5.08606 -1.53603,8.24886 -0.70909,1.90261 -1.7097,5.28537 -2.22357,7.51724 l -0.93432,4.05794 1.96753,11.83737 1.96753,11.83736 2.11163,3.77999 c 1.63063,2.91897 2.31964,4.61016 3.02485,7.4245 1.01588,4.05419 1.1239,6.49228 0.51924,11.71975 -0.34187,2.95563 -0.3125,4.00432 0.20869,7.45217 0.3336,2.20687 0.54606,4.07299 0.47211,4.14693 -0.0739,0.0739 -0.82248,-0.0219 -1.66342,-0.21294 -1.09681,-0.24918 -2.08773,-0.22988 -3.50575,0.0683 -1.33711,0.28118 -3.10692,0.33356 -5.46936,0.16188 -4.59281,-0.33375 -4.9631,-0.33825 -6.5691,-0.0798 -0.83684,0.13466 -1.94684,0.0334 -2.861005,-0.26102 z m 14.113065,-3.90125 c 0.36035,-0.0254 0.55432,-0.14698 0.43106,-0.27025 -0.12327,-0.12327 -2.57166,-0.27402 -5.44087,-0.335 -2.86921,-0.061 -6.755,-0.24015 -8.63509,-0.39815 -1.880095,-0.158 -3.610635,-0.22153 -3.845645,-0.14118 -1.06307,0.36347 -0.19387,0.59324 2.58654,0.68374 1.656665,0.0539 3.422505,0.20773 3.924085,0.34183 0.75142,0.20088 8.6073,0.28603 10.97992,0.11901 z m 0.90232,-4.11219 c -0.7825,-1.4621 -5.54735,-2.2249 -9.76498,-1.56326 -2.44938,0.38424 -2.88196,0.36505 -4.2913,-0.19046 -1.297895,-0.51158 -1.856805,-0.55776 -3.251075,-0.26858 -1.60653,0.3332 -2.4931,0.78016 -2.17368,1.09584 0.0815,0.0805 0.91726,-0.0523 1.8573,-0.29514 1.49346,-0.3858 1.90697,-0.36728 3.276405,0.14684 1.30889,0.49138 1.95686,0.53328 3.93109,0.25417 4.29709,-0.6075 8.43902,-0.168 9.40685,0.99816 0.2146,0.25858 0.6075,0.47015 0.87311,0.47015 0.36806,0 0.40047,-0.15406 0.13628,-0.64772 z m 1.00514,-6.78718 c -0.002,-0.42127 -4.45007,-2.10173 -6.81147,-2.57325 -1.90094,-0.37958 -2.7552,-0.35579 -6.32395,0.17609 -2.26936,0.33822 -4.318395,0.68423 -4.553415,0.76892 -0.6591,0.23752 -0.50541,0.81506 0.17092,0.6423 0.32902,-0.084 2.398335,-0.42362 4.598475,-0.75461 3.75073,-0.56428 4.1452,-0.56651 6.32394,-0.0358 1.27802,0.3113 3.09281,0.88762 4.03286,1.28072 1.82827,0.76454 2.56443,0.90691 2.56264,0.49564 z m -16.577865,-11.11424 1.367345,-0.9918 4.61476,0.23486 c 2.53813,0.12918 6.05459,0.52642 7.81437,0.88277 3.65777,0.74069 3.80801,0.75452 3.80801,0.35051 0,-0.52282 -7.53958,-1.71642 -12.11747,-1.91831 l -4.42619,-0.19521 -2.315015,1.59616 c -1.27326,0.8779 -2.22837,1.73636 -2.12247,1.90771 0.19543,0.31621 0.91769,-0.0831 3.37666,-1.86669 z"
       id="path18849" />
    <path
       style="fill:#d9a18e;fill-opacity:1;fill-rule:evenodd;stroke:none;stroke-width:0.471569"
       d="m 104.39564,214.74563 c -5.417975,-0.82749 -14.357054,-7.51157 -14.357054,-10.73531 0,-0.83453 1.540882,-0.94516 3.128732,-0.22463 1.511697,0.68598 3.677727,0.85356 4.892817,0.37855 0.39265,-0.15349 1.35163,-0.0455 2.306315,0.25984 1.3364,0.42737 1.93025,0.45041 3.25898,0.12646 1.09751,-0.26758 2.124,-0.29348 3.16305,-0.0798 2.13214,0.43848 6.45722,0.4214 8.43433,-0.0333 1.77984,-0.40934 4.55538,0.0611 4.55538,0.77205 0,1.11728 -2.41457,4.66566 -4.46945,6.56816 -2.07734,1.9233 -2.53882,2.18376 -4.81079,2.7152 -2.60967,0.61042 -3.51504,0.64793 -6.10231,0.25278 z m 9.45195,-3.74364 c 1.00527,-1.1406 1.04037,-2.0831 0.0776,-2.0831 -0.56696,0 -0.6426,0.0999 -0.34611,0.45717 0.46546,0.56085 -0.69231,1.77158 -2.00488,2.09661 -0.72345,0.17915 -0.95464,0.0257 -1.50663,-1.00016 -0.35862,-0.66648 -0.78164,-1.21179 -0.94004,-1.21179 -0.41567,0 -0.36645,0.21531 0.38663,1.69148 0.65425,1.28244 0.71812,1.31657 2.11331,1.12943 0.95643,-0.12828 1.70062,-0.49017 2.22015,-1.07964 z m -11.69342,-0.0659 c 1.01443,-0.59853 1.21596,-0.91013 1.21596,-1.88009 0,-0.99631 -0.11628,-1.16265 -0.81273,-1.16265 -0.447,0 -1.00731,0.23445 -1.24513,0.52101 -0.52437,0.63182 -0.1475,1.13741 0.42276,0.56716 0.57957,-0.57958 0.95143,-0.49928 0.95143,0.20546 0,0.33548 -0.42392,0.86038 -0.94205,1.16645 -0.81761,0.48298 -1.08697,0.49555 -2.039095,0.0952 -0.69083,-0.29047 -1.17847,-0.78567 -1.31693,-1.33736 -0.19324,-0.76993 -0.82944,-1.26389 -0.82944,-0.644 0,1.09069 0.92466,2.47737 1.8513,2.77632 1.478555,0.477 1.399215,0.48589 2.743925,-0.30751 z"
       id="path24190" />
    <path
       style="fill:#d9a18e;fill-opacity:1;fill-rule:evenodd;stroke:none;stroke-width:0.471569"
       d="m 127.69743,98.67276 c -1.02531,-1.63271 -1.06291,-1.82017 -0.89059,-4.43937 0.31863,-4.84305 0.8471,-8.102875 2.07811,-12.818801 1.39112,-5.32926 2.12824,-12.548223 2.16408,-21.193745 0.0222,-5.347576 0.48417,-9.457107 1.5564,-13.8443 0.53615,-2.193722 0.75925,-2.557528 2.68103,-4.371858 1.15292,-1.088459 3.24991,-2.843637 4.65998,-3.900399 1.41006,-1.056762 3.56362,-2.720009 4.78568,-3.696103 1.22206,-0.976097 3.1711,-2.273881 4.3312,-2.883967 2.85963,-1.503855 3.71012,-1.304945 5.05562,1.182378 l 1.00951,1.866228 -0.78102,1.607579 c -0.72337,1.48892 -0.79104,2.151631 -0.91675,8.978371 -0.1696,9.209798 -0.30081,10.644189 -1.5342,16.771244 -0.54878,2.726133 -1.1626,6.146967 -1.36404,7.601851 -0.22505,1.625476 -0.80517,3.602197 -1.50479,5.127521 -2.4004,5.233397 -8.18166,12.899601 -12.83698,17.022391 -2.21175,1.95875 -6.00474,6.29685 -7.04645,8.05914 -0.33867,0.57293 -0.48324,0.46619 -1.44679,-1.06816 z"
       id="path24229" />
    <path
       style="fill:#d9a18e;fill-opacity:1;fill-rule:evenodd;stroke:none;stroke-width:0.471569"
       d="m 75.510614,97.28267 c -0.376017,-0.28504 -2.298838,-1.42365 -4.27293,-2.53025 -5.326657,-2.98593 -8.98415,-6.91579 -23.389402,-25.131124 -3.013609,-3.81069 -7.063281,-8.458992 -9.149482,-10.50198 -3.210851,-3.144342 -3.727314,-3.800236 -3.633742,-4.614765 0.08479,-0.738059 0.375483,-1.04033 1.305496,-1.357479 1.917388,-0.653863 5.192665,-0.540894 7.019322,0.242103 0.883656,0.378779 2.626947,0.927231 3.873979,1.218782 2.093774,0.48952 2.381165,0.671909 3.754433,2.382716 0.817905,1.01894 3.647459,5.585188 6.287896,10.147215 3.165407,5.469048 6.049905,9.935049 8.467646,13.110268 4.91271,6.451854 9.146506,12.821984 10.129074,15.240104 1.063732,2.61786 1.011172,2.85828 -0.39229,1.79441 z"
       id="path24268" />
    <path
       style="fill:#3c2309;fill-opacity:1;fill-rule:evenodd;stroke:none;stroke-width:0.471569"
       d="m 124.44654,146.79803 c -0.16748,-1.03207 0.028,-1.74949 1.02842,-3.77416 0.67936,-1.37493 1.55646,-2.72489 1.9491,-2.9999 0.67329,-0.47159 0.75719,-0.41734 1.47517,0.95403 0.8274,1.58036 0.99995,3.33268 0.43257,4.39285 -0.5193,0.97032 -3.03125,2.70148 -3.9199,2.70148 -0.6109,0 -0.79882,-0.24807 -0.96536,-1.2743 z"
       id="path31832" />
    <path
       style="fill:#3c2309;fill-opacity:1;fill-rule:evenodd;stroke:none;stroke-width:0.471569"
       d="m 85.936572,149.13751 c -0.712512,-0.19511 -0.945312,-0.59838 -1.400288,-2.42562 -0.406649,-1.63317 -0.458366,-2.47615 -0.202962,-3.30834 0.401053,-1.30674 0.697501,-1.21134 1.567698,0.5045 0.539142,1.06308 1.372239,5.60149 1.00916,5.49754 -0.06546,-0.0187 -0.503587,-0.13937 -0.973608,-0.26808 z"
       id="path31871" />
  </g>
  <g
     inkscape:groupmode="layer"
     id="layer4"
     inkscape:label="eyes"
     style="display:inline">
    <ellipse
       style="display:inline;fill:#ffffff;fill-opacity:1;fill-rule:evenodd;stroke-width:0.438455"
       id="path31932"
       cx="127.43619"
       cy="144.96629"
       rx="0.86110455"
       ry="0.98196137" />
    <ellipse
       style="display:inline;fill:#ffffff;fill-opacity:1;fill-rule:evenodd;stroke-width:0.438455"
       id="path31932-0"
       cx="85.501678"
       cy="147.27827"
       rx="0.86110455"
       ry="0.98196137" />
  </g>
</svg>
