<?xml version="1.0" encoding="UTF-8" standalone="no"?>
<!-- Created with Inkscape (http://www.inkscape.org/) -->

<svg
   width="210mm"
   height="297mm"
   viewBox="0 0 210 297"
   version="1.1"
   id="svg5"
   inkscape:version="1.1 (c68e22c387, 2021-05-23)"
   sodipodi:docname="fox1bg.svg"
   xmlns:inkscape="http://www.inkscape.org/namespaces/inkscape"
   xmlns:sodipodi="http://sodipodi.sourceforge.net/DTD/sodipodi-0.dtd"
   xmlns:xlink="http://www.w3.org/1999/xlink"
   xmlns="http://www.w3.org/2000/svg"
   xmlns:svg="http://www.w3.org/2000/svg">
  <sodipodi:namedview
     id="namedview7"
     pagecolor="#ffffff"
     bordercolor="#666666"
     borderopacity="1.0"
     inkscape:pageshadow="2"
     inkscape:pageopacity="0.0"
     inkscape:pagecheckerboard="0"
     inkscape:document-units="mm"
     showgrid="false"
     showborder="true"
     inkscape:zoom="0.46488699"
     inkscape:cx="199.02726"
     inkscape:cy="581.88108"
     inkscape:window-width="1920"
     inkscape:window-height="1002"
     inkscape:window-x="-8"
     inkscape:window-y="-8"
     inkscape:window-maximized="1"
     inkscape:current-layer="layer5" />
  <defs
     id="defs2">
    <linearGradient
       inkscape:collect="always"
       id="linearGradient53776">
      <stop
         style="stop-color:#000000;stop-opacity:1;"
         offset="0"
         id="stop53772" />
      <stop
         style="stop-color:#970000;stop-opacity:0"
         offset="1"
         id="stop53774" />
    </linearGradient>
    <linearGradient
       id="linearGradient53038"
       inkscape:swatch="solid">
      <stop
         style="stop-color:#000000;stop-opacity:1;"
         offset="0"
         id="stop53036" />
    </linearGradient>
    <inkscape:perspective
       sodipodi:type="inkscape:persp3d"
       inkscape:vp_x="0 : 148.5 : 1"
       inkscape:vp_y="0 : 1000 : 0"
       inkscape:vp_z="210 : 148.5 : 1"
       inkscape:persp3d-origin="105 : 99 : 1"
       id="perspective44150" />
    <linearGradient
       inkscape:collect="always"
       xlink:href="#linearGradient53776"
       id="linearGradient53778"
       x1="91.110764"
       y1="242.3828"
       x2="189.73558"
       y2="228.72473"
       gradientUnits="userSpaceOnUse"
       gradientTransform="translate(0.69954274)" />
    <linearGradient
       inkscape:collect="always"
       xlink:href="#linearGradient53776"
       id="linearGradient55046"
       x1="-0.93747234"
       y1="150.25404"
       x2="215.299"
       y2="150.25404"
       gradientUnits="userSpaceOnUse"
       gradientTransform="translate(0.69954274)" />
  </defs>
  <g
     inkscape:groupmode="layer"
     id="layer2"
     inkscape:label="Layer 2"
     style="display:none"
     sodipodi:insensitive="true">
    <path
       style="display:inline;fill:none;stroke:#000000;stroke-width:0.264583px;stroke-linecap:butt;stroke-linejoin:miter;stroke-opacity:1"
       d="m 47.256418,-28.05834 c 1.781194,-4.622355 13.716315,-9.102503 18.245439,-3.335203 1.175984,1.497476 3.03736,10.199263 5.14024,13.134136 2.578116,2.036206 1.285984,-0.90679 5.964174,-1.681859 0.630051,4.022047 2.686204,8.39212 7.659558,9.392739 6.210046,-1.256092 7.329526,-4.693852 8.344926,-8.176224 2.14612,-1.310317 2.97731,1.061167 4.25888,2.171615 l 3.774925,-13.515037 c 2.92077,-0.488744 2.04012,-2.861397 8.53379,-3.12082 5.20105,0.461535 4.45555,0.413597 6.94423,1.473851 2.28685,-0.548843 6.14617,6.785898 5.88552,10.034755 -0.84704,10.557691 -7.018,19.570322 -10.92927,20.052882 8.65012,16.462067 11.11372,31.160199 1.37444,48.001429 -6.77573,3.474709 -11.55964,5.515582 -24.572522,3.889296 C 77.951157,49.595707 76.618443,48.156445 73.409473,47.602281 61.945559,37.413486 56.672903,27.495074 54.836201,11.753066 c -0.04546,-4.2754953 0.959861,0.571404 4.012022,-8.665364 -3.465046,-9.0622341 -8.37927,-8.3929761 -11.89601,-13.01399 -0.745196,-6.154443 -1.581049,-10.008661 0.304205,-18.132052 z"
       id="path1334-7"
       sodipodi:nodetypes="csccccccccscccccccc" />
    <path
       style="fill:none;stroke:#000000;stroke-width:0.264583px;stroke-linecap:butt;stroke-linejoin:miter;stroke-opacity:1"
       d="m 38.926469,-109.23985 c -2.5579,-0.24361 1.549809,36.849762 0.572259,47.568187 -0.670147,7.347887 -4.430788,7.586236 -5.038986,11.633498 -4.003925,26.644164 9.288071,84.578077 13.961566,84.281347 -1.251355,0.341279 6.028404,22.650109 15.663865,29.057163 24.032689,15.980423 -9.813184,43.462455 45.254157,3.673746 1.08827,-0.786327 16.42576,-13.630963 19.76833,-18.248491 16.30989,-22.53094 17.48183,-12.525619 22.20516,-30.169172 4.72401,-17.64611395 5.29855,-4.493611 -4.30389,-23.8392972 -10.95667,-22.0740148 -10.47059,-19.9913968 -10.47059,-19.9913968 -3.78846,-10.992099 -5.40316,-22.853703 -11.59298,-32.885259 3.21559,-14.562472 0.99979,-29.124943 0.20741,-43.687415 1.08747,-4.68141 -0.0375,-8.62535 -2.15868,-12.23721 -12.45515,0.99364 -14.60855,7.9306 -20.81044,12.5319 -1.34481,0 -16.363975,6.471646 -15.721916,6.483737 0.959785,0.01807 -6.47129,2.697514 -6.47129,2.520069 -5.8126,-0.939375 -13.132714,-0.873741 -14.422123,-4.828577 C 38.863797,-119.28317 42.430082,-108.80689 38.926469,-109.23985 Z"
       id="path7063"
       sodipodi:nodetypes="csscssssscccccsccc" />
    <path
       style="fill:#e79d69;fill-opacity:1;stroke-width:1.52103"
       d="m 287.6267,328.08117 c -2.06002,-1.50632 -3.25464,-6.08243 -4.86597,-18.63974 -4.69612,-36.59726 -13.15333,-51.54641 -41.0708,-72.59766 -20.82018,-15.6995 -46.22062,-59.50384 -55.74833,-96.14078 -1.74155,-6.6968 -4.37478,-13.54493 -5.85163,-15.21807 -10.38724,-11.76782 -29.14629,-82.024989 -40.09626,-150.170162 -7.71418,-48.00781 -10.3669,-77.399298 -10.53906,-116.770488 -0.19045,-43.55159 0.6924,-48.90774 10.3981,-63.08438 3.75026,-5.47782 7.69852,-12.86085 8.77391,-16.40673 2.63609,-8.692 2.22351,-58.33429 -0.92585,-111.39808 -2.52544,-42.55123 -3.06839,-70.51891 -1.48382,-76.43173 0.50443,-1.88227 1.93632,-3.42231 3.18198,-3.42231 1.24565,0 4.29843,-1.71116 6.78393,-3.80258 5.24594,-4.41416 7.62817,-4.63494 16.44534,-1.52406 14.55742,5.13616 65.42882,40.74008 74.14727,51.89426 7.15285,9.15118 13.52319,11.55006 39.91567,15.03105 15.75433,2.07789 17.00009,2.03611 25.39354,-0.85166 4.85456,-1.67022 13.28134,-5.31635 18.72617,-8.10252 13.04069,-6.67304 50.67447,-22.22391 53.78282,-22.22391 1.34258,0 10.55337,-7.80082 20.46842,-17.33517 21.45363,-20.62989 31.63757,-26.46123 51.77038,-29.6438 l 7.67421,-1.21313 3.16301,7.35263 c 4.48929,10.43564 6.16883,20.95543 5.12695,32.11265 -0.4957,5.30845 0.29917,26.35913 1.7664,46.7793 3.09175,43.02921 2.4655,93.75003 -1.38647,112.29311 l -2.32065,11.17138 8.1844,16.96766 c 9.63309,19.971 11.72096,25.97741 24.40335,70.20368 9.05695,31.58364 10.41851,35.027815 24.24747,61.336163 8.05841,15.330425 19.69122,37.935781 25.85064,50.234125 6.15944,12.2983436 15.43042,28.6867051 20.60219,36.418584 l 9.40322,14.057962 -5.32047,16.322456 c -2.92625,8.977358 -7.49577,23.509334 -10.15449,32.293279 -7.71329,25.483421 -10.78647,30.527931 -28.08075,46.093701 -17.85201,16.06773 -30.41003,29.75838 -45.61695,49.73115 -20.10765,26.40939 -63.81401,65.77787 -108.15086,97.41685 -51.42862,36.69969 -80.35874,54.91268 -92.74483,58.3876 -1.71702,0.48171 -4.3505,-0.0225 -5.85218,-1.12063 z m 107.08043,-138.6477 c 4.60111,-1.40713 13.64544,-5.00274 20.09851,-7.99024 l 11.73287,-5.43181 6.00968,-12.3345 c 12.06809,-24.76903 16.91599,-45.07654 16.91599,-70.859904 0,-26.934587 -6.73221,-54.202628 -20.62062,-83.5213514 -3.73448,-7.8835409 -6.61163,-14.4206362 -6.39367,-14.5268649 7.39596,-3.6049613 10.41618,-6.0719797 15.94091,-13.0211527 13.45358,-16.922349 23.24162,-43.786679 23.24162,-63.789188 0,-8.318586 -0.89,-11.907896 -5.12552,-20.670849 -2.81903,-5.83237 -6.7547,-12.09403 -8.74592,-13.9148 -5.63582,-5.15343 -16.05967,-8.22007 -31.10409,-9.15068 -14.41582,-0.89174 -17.2242,-0.15968 -31.83646,8.29876 -2.50969,1.45277 -4.80141,2.76564 -5.09271,2.9175 -0.47536,0.24784 -7.85442,25.812192 -12.35869,42.816053 l -1.74501,6.587457 -3.63818,-3.925655 c -2.30726,-2.489591 -5.25943,-3.925655 -8.07008,-3.925655 -4.02612,0 -4.73238,0.824032 -7.71346,8.99993 -3.77691,10.35856 -10.05768,16.675882 -20.57136,20.69108 -6.75581,2.580077 -7.27817,2.576031 -13.21765,-0.102365 -8.53034,-3.846638 -16.23751,-13.370563 -19.32694,-23.882732 -3.00417,-10.222063 -5.56182,-11.074371 -14.67465,-4.890231 -9.91156,6.726174 -11.68286,4.451673 -22.79332,-29.268392 -6.62637,-20.11098 -10.8773,-25.02816 -23.95012,-27.70394 -20.49671,-4.1953 -50.22425,8.89046 -54.43064,23.95985 -3.73419,13.377696 -4.91354,32.525281 -3.10064,50.340885 1.99904,19.644764 3.09542,21.666699 16.75221,30.894191 11.24262,7.59631 21.27802,18.1160379 25.86562,27.1139762 l 4.31666,8.4665058 -3.59819,8.853136 c -1.979,4.869226 -5.34769,10.679239 -7.48599,12.911137 -4.61637,4.818453 -4.84812,8.993238 -1.54692,27.865638 4.99228,28.539896 15.80128,56.873681 29.22212,76.600331 8.64111,12.70116 29.22851,35.59869 36.25416,40.32228 17.79688,11.96546 94.97305,19.16714 120.79048,11.27154 z"
       id="path14102"
       transform="scale(0.26458333)" />
    <path
       style="fill:#f2f2f2;fill-opacity:1;stroke-width:1.52103"
       d="m 356.68139,190.53397 c -17.9855,-0.93338 -45.79206,-3.86558 -53.99654,-5.6939 -25.82534,-5.75506 -24.37856,-5.00317 -38.96388,-20.2494 -28.72728,-30.029 -43.42897,-57.93276 -51.583,-97.9043 -3.63325,-17.810464 -3.93151,-29.497369 -0.78361,-30.70534 2.37243,-0.910382 7.48695,-10.09781 10.71569,-19.249028 1.82698,-5.1782 1.66619,-6.234581 -2.05073,-13.4732437 -6.16399,-12.0042955 -11.57505,-17.9082243 -26.24368,-28.6341003 -15.81499,-11.564108 -16.20855,-12.426772 -17.5678,-38.507892 -0.67273,-12.908271 -0.27309,-20.879692 1.52511,-30.420588 2.24737,-11.924038 2.94517,-13.412778 8.97943,-19.157348 11.28172,-10.74011 32.40787,-16.59126 46.08154,-12.76287 11.03202,3.08877 14.31026,7.63291 21.65911,30.022766 6.81784,20.77205 11.49357,29.656935 16.07109,30.538484 1.49377,0.287676 5.38692,-1.327936 8.65144,-3.590247 7.09359,-4.915865 9.86472,-4.246311 11.16754,2.698271 1.26792,6.758605 8.54619,18.134922 14.06218,21.979917 8.67798,6.049102 13.57198,6.760238 22.78959,3.311492 10.48243,-3.92198 17.90975,-11.228671 21.39822,-21.050678 1.48337,-4.176551 3.58315,-7.933758 4.66617,-8.34935 1.08302,-0.415594 4.63619,1.653902 7.89592,4.598876 5.14911,4.651912 6.0305,4.996629 6.71718,2.627116 0.43473,-1.500062 3.62725,-12.994334 7.0945,-25.542826 l 6.30407,-22.815441 8.1123,-4.95867 c 13.45722,-8.22575 28.72746,-9.10524 47.49752,-2.73562 9.01572,3.05948 14.60397,9.9396 20.32686,25.025991 2.96757,7.822966 3.08893,9.496094 1.47211,20.296099 -4.18698,27.968179 -21.01246,59.217598 -35.00486,65.0134443 -2.5472,1.0550833 -4.63126,2.5368427 -4.63126,3.2928004 0,0.7559592 2.31012,5.97750861 5.13361,11.6034465 15.09227,30.0721288 22.69598,59.2457308 22.68601,87.0409608 -0.009,26.263718 -4.70865,45.214178 -17.67475,71.276118 -4.25869,8.56001 -5.79497,10.17008 -13.33648,13.97702 -18.16785,9.1711 -38.89949,13.55004 -59.1706,12.49804 z"
       id="path33575"
       transform="scale(0.26458333)" />
  </g>
  <g
     inkscape:groupmode="layer"
     id="layer5"
     inkscape:label="Layer 5"
     style="display:none">
    <rect
       style="mix-blend-mode:luminosity;fill:url(#linearGradient55046);fill-opacity:1;fill-rule:evenodd;stroke:url(#linearGradient53778);stroke-width:0.365;stroke-miterlimit:4;stroke-dasharray:none;stroke-opacity:1"
       id="rect51729"
       width="215.8716"
       height="304.09241"
       x="-0.055488586"
       y="-1.7921753" />
  </g>
  <g
     inkscape:groupmode="layer"
     id="layer4"
     inkscape:label="Layer 4"
     style="display:inline"
     sodipodi:insensitive="true">
    <path
       style="fill:none;stroke:none;stroke-width:0.264583px;stroke-linecap:butt;stroke-linejoin:miter;stroke-opacity:1"
       d="m 75.153145,129.85193 4.38333,-0.17423 3.60207,2.59474 3.00058,4.64813 0.92644,7.26153 2.33686,6.06683 3.194159,2.06584 5.28903,2.04716 3.927016,-0.70935 4.45247,-0.18045 3.92702,0.0311 3.71961,-1.03914 1.39658,-3.66498 0.36643,-3.27921 0.13136,-2.56362 1.17535,-4.29968 -0.35261,-3.35386 1.82524,-2.45785 5.33743,-2.33962 3.97542,-0.49157 5.29594,-0.0311 1.51412,3.0552 2.55809,3.19208 1.90821,4.45524 0.53927,4.12544 -0.16593,2.07206 -1.19608,4.18145 -4.79125,6.21617 -2.29537,1.97872 -1.83215,2.27117 -0.9057,2.08451 3.55368,3.60276 0.91953,1.08892 1.68005,4.01967 1.59708,3.06141 0.89187,5.74327 0.51854,6.1415 -1.27905,7.03131 -2.6618,4.51123 -3.69887,3.04898 -2.82773,2.56362 -3.60208,3.1112 -3.29095,1.74849 -4.3142,1.86049 -5.48953,-0.38578 -4.53543,-2.45163 -3.37392,-2.61962 -2.993656,-2.00984 -1.27905,3.88278 2.599576,3.82055 1.39658,2.54495 -2.862296,1.21959 0.007,2.88719 -2.5581,0.74669 -5.572499,-2.22762 -3.85788,-3.72721 -3.33244,-6.10417 -1.32053,-5.17703 -2.00499,-3.35387 -2.31612,-6.40284 -0.92644,-3.29787 -1.0025,-5.8926 -1.63856,-4.89703 -0.94027,-5.28281 -1.09929,-2.89341 -0.17976,-4.99036 -0.22815,-4.38057 -1.71462,-3.96988 -0.20741,-0.70313 -1.82524,-4.97792 -0.31803,-1.69249 -2.73786,-3.34764 0.10371,-4.51124 0.38717,-4.169 3.10428,-3.29165 1.53486,-1.20092 z"
       id="path1335" />
    <path
       style="fill:none;stroke:none;stroke-width:0.264583px;stroke-linecap:butt;stroke-linejoin:miter;stroke-opacity:1"
       d="m 87.065565,144.1821 4.13444,-0.68446 1.645469,-0.13067 1.9566,3.22942 2.22623,2.56362 2.62724,0.88358 4.825806,0.056 2.97983,-2.63829 1.86672,-3.87033 6.4782,-0.63468 v 0"
       id="path1337" />
    <path
       style="fill:none;stroke:none;stroke-width:0.264583px;stroke-linecap:butt;stroke-linejoin:miter;stroke-opacity:1"
       d="m 94.802074,146.59639 v 0 l 2.60649,-5.69971 3.180336,-0.85869 3.54676,-0.18668 5.19224,3.73966 v 0"
       id="path1372" />
    <path
       style="fill:none;stroke:none;stroke-width:0.264583px;stroke-linecap:butt;stroke-linejoin:miter;stroke-opacity:1"
       d="m 91.981254,129.5097 v 0 l 0.47014,4.40545 -0.52545,4.45523 0.91953,4.99659"
       id="path1407" />
    <path
       style="fill:none;stroke:none;stroke-width:0.264583px;stroke-linecap:butt;stroke-linejoin:miter;stroke-opacity:1"
       d="m 109.3279,143.59097 v 0 l 2.70328,-7.62243 -1.21682,-7.95222"
       id="path1442" />
    <path
       style="fill:none;stroke:none;stroke-width:0.264583px;stroke-linecap:butt;stroke-linejoin:miter;stroke-opacity:1"
       d="m 81.361705,113.83549 4.11369,-1.57427 3.29096,1.3316 2.41291,2.20272 0.850389,2.04095 -4.417899,2.20895 -3.92702,-0.13067 -1.85981,-1.47471 -0.64989,-2.36451 z"
       id="path1477" />
    <path
       style="fill:none;stroke:none;stroke-width:0.264583px;stroke-linecap:butt;stroke-linejoin:miter;stroke-opacity:1"
       d="m 112.24551,117.2578 0.51162,-1.15114 1.06472,-2.73785 1.96351,-1.70494 3.31861,-0.37956 2.06031,1.05158 -0.0346,4.00722 -1.14077,2.34584 -3.65048,1.50582 -1.94968,-0.6409 z"
       id="path1479" />
    <path
       style="fill:none;stroke:none;stroke-width:0.264583px;stroke-linecap:butt;stroke-linejoin:miter;stroke-opacity:1"
       d="m 75.941915,208.3202 -2.08262,-0.60719 -9.90465,-19.54434 -4.83011,-21.47149 -1.83818,-16.11242 -2.64971,-20.66191 1.77951,-13.0853 2.38572,-12.24931 -2.92349,-12.038115 -1.93595,-11.756522 1.72085,-17.696382 3.79369,-11.17574 5.45587,-0.2112 3.79369,3.24713 5.01588,5.17427 4.63456,3.695923 4.92788,6.723041 2.62038,3.80151 0.57687,8.86139"
       id="path1481" />
    <path
       style="fill:none;stroke:none;stroke-width:0.264583px;stroke-linecap:butt;stroke-linejoin:miter;stroke-opacity:1"
       d="m 113.08681,83.09915 0.51821,-12.548505 2.02395,-4.927883 4.47812,-4.778291 6.28696,-6.96944 5.30921,-2.54314 3.7448,-2.51674 1.98484,4.3735 1.60352,4.68149 1.74041,8.667799 0.6062,14.502059 -0.18577,9.230981 -0.10755,9.75897 3.0017,10.63015 3.41237,10.18136 4.615,10.20776 3.90124,6.98703 3.02127,5.27988 2.39549,5.91346 -5.41676,19.64993 -3.03104,15.73403 -11.19529,18.36517 -8.88779,7.07503 -9.4186,-2.51524"
       id="path1516" />
    <path
       style="fill:none;stroke:none;stroke-width:0.264583px;stroke-linecap:butt;stroke-linejoin:miter;stroke-opacity:1"
       d="m 78.356975,63.827604 v 0 l 10.35442,4.109503 7.323379,2.657536 9.366886,-3.634314 10.22731,-1.337567 v 0"
       id="path1551" />
    <path
       style="fill:none;stroke:none;stroke-width:0.264583px;stroke-linecap:butt;stroke-linejoin:miter;stroke-opacity:1"
       d="m 75.941915,208.3202 11.42093,4.50734"
       id="path1586" />
    <path
       style="fill:#dba883;fill-opacity:0.933333;stroke:none;stroke-width:0.569135;stroke-opacity:1"
       d="m 79.805062,209.48209 -5.406782,-2.14272 -5.069747,-9.89298 C 64.458795,187.9437 64.1721,187.1717 62.061466,177.87812 c -1.253067,-5.51753 -2.90848,-15.42279 -3.852222,-23.04996 -0.910196,-7.35607 -1.974533,-15.9011 -2.36519,-18.98896 -0.809067,-6.39508 -0.265054,-12.72127 2.104155,-24.46869 l 1.361022,-6.74846 -1.198886,-4.634236 C 57.450956,97.438987 56.337827,92.110594 55.636721,88.14694 54.39949,81.152322 54.386547,80.685494 55.196836,72.279632 c 0.642151,-6.661605 1.257871,-9.924463 2.667529,-14.13591 l 1.832676,-5.475245 2.725703,-0.176345 c 2.717879,-0.175836 2.739803,-0.162766 7.636957,4.55308 2.701192,2.601182 5.70956,5.406067 6.685264,6.23308 0.975707,0.827011 3.279905,3.603041 5.120442,6.168951 3.191316,4.449043 3.375591,4.893776 3.975467,9.594469 l 0.629034,4.929174 0.08239,-4.439057 c 0.09104,-4.905669 -0.222189,-5.767446 -3.852445,-10.598973 -1.275381,-1.697413 -2.2134,-3.191679 -2.084485,-3.320592 0.128913,-0.128913 3.392797,0.969687 7.253076,2.441334 3.860281,1.471647 7.53091,2.673512 8.15696,2.67081 0.62604,-0.0027 3.0591,-0.767874 5.406776,-1.700387 2.34768,-0.932511 5.80517,-1.875621 7.68332,-2.095794 1.87814,-0.220175 3.98941,-0.536744 4.69171,-0.703484 1.27157,-0.301898 1.27304,-0.293974 0.35204,1.891871 -0.6221,1.476465 -0.98432,4.337648 -1.10648,8.74009 -0.13629,4.911449 -0.0571,5.905814 0.31719,3.983942 0.27435,-1.408607 0.51779,-4.261884 0.54099,-6.340613 0.0581,-5.201075 1.19012,-7.382935 7.39324,-14.249172 4.36814,-4.835096 6.04983,-6.256078 9.73274,-8.223895 l 4.45218,-2.378853 1.51849,4.071289 c 3.04086,8.152918 3.69487,13.640303 3.69487,31.001065 v 15.791283 l 1.97557,6.86211 c 3.3711,11.70948 7.20894,20.94264 12.54807,30.18837 1.77818,3.07927 3.79302,6.99102 4.47742,8.69278 l 1.24437,3.09411 -2.47642,8.85772 c -1.36203,4.87174 -3.22994,12.69938 -4.15092,17.39474 l -1.67449,8.53702 -5.71069,9.39072 c -5.24648,8.62738 -6.05149,9.65714 -9.90337,12.66823 l -4.19268,3.2775 -4.03632,-0.96871 c -2.21997,-0.5328 -4.01862,-1.11129 -3.997,-1.28553 0.0216,-0.17426 2.10609,-2.1096 4.63215,-4.30077 2.52607,-2.19116 5.19311,-4.93225 5.92677,-6.09131 3.4854,-5.50629 3.04193,-18.19071 -0.90985,-26.02454 -1.19546,-2.36982 -2.83995,-4.92966 -3.65443,-5.68853 -0.81448,-0.75887 -1.48087,-1.7101 -1.48087,-2.11384 0,-0.40374 1.79789,-2.72812 3.99532,-5.16529 5.27604,-5.85167 6.55181,-8.47528 6.44436,-13.2528 -0.0926,-4.11868 -1.02821,-6.72409 -3.92869,-10.94065 -1.07685,-1.56547 -1.95792,-3.07368 -1.95792,-3.35158 0,-0.2779 -2.16963,-0.50527 -4.82141,-0.50527 -3.85645,0 -5.44168,0.27431 -7.92052,1.37057 -3.64839,1.61349 -4.92512,3.29135 -4.83561,6.35487 0.0359,1.22893 -0.21394,2.93872 -0.55522,3.79954 -0.54885,1.38437 -0.91698,1.56512 -3.18771,1.56512 h -2.56721 l 1.18447,-3.16579 c 0.97221,-2.59845 1.11519,-3.85574 0.79784,-7.01579 -0.37494,-3.73357 -1.40499,-6.88182 -1.41714,-4.33135 -0.003,0.62604 0.22995,2.57505 0.51762,4.33113 0.44448,2.71333 0.33636,3.70842 -0.71995,6.62566 l -1.24299,3.43281 -2.2713,-1.62243 c -4.05424,-2.89602 -8.998716,-2.04143 -10.899866,1.88391 l -1.15016,2.37477 -1.01882,-1.5549 c -0.80415,-1.22729 -1.03796,-2.86592 -1.10971,-7.77725 -0.05,-3.42229 -0.29892,-6.42534 -0.55316,-6.67346 -0.25424,-0.24811 -0.371866,2.67314 -0.2614,6.49167 0.18947,6.54938 0.13636,6.96011 -0.937413,7.24869 -3.086545,0.82954 -3.521131,0.50462 -3.925369,-2.93482 -0.712584,-6.06299 -4.927227,-10.97208 -9.419944,-10.97208 -2.728889,0 -7.385818,2.41836 -10.100673,5.24533 -1.607002,1.67336 -1.834994,2.34511 -2.179611,6.42193 -0.357383,4.22784 -0.289301,4.67337 0.953101,6.2371 1.515168,1.90705 4.91136,10.67474 5.630688,14.53632 0.262392,1.4086 0.492344,3.82347 0.511003,5.36637 0.01865,1.54289 0.288115,3.59178 0.598789,4.55308 0.830408,2.56947 2.150565,7.88788 3.400583,13.69964 1.287513,5.98607 3.373054,12.26286 5.011206,15.08207 0.636609,1.09558 1.341901,2.88836 1.567315,3.98394 0.225412,1.09558 1.022876,3.2085 1.772142,4.69536 0.749266,1.48687 1.165902,2.6771 0.925862,2.64498 -0.240041,-0.0321 -2.869488,-1.02264 -5.843217,-2.20113 z m 9.944631,-90.05369 c 1.416982,-0.68842 2.576331,-1.61042 2.576331,-2.04889 0,-1.2056 -3.592778,-4.54745 -5.367878,-4.99298 -0.860671,-0.21601 -2.566098,-0.0928 -3.789836,0.27387 -2.071415,0.62061 -2.224979,0.81342 -2.224979,2.79368 0,2.80473 1.277676,4.53059 3.564493,4.81484 1.013256,0.12595 2.027518,0.26998 2.253911,0.32007 0.226396,0.0501 1.570977,-0.47217 2.987958,-1.16059 z m 28.612577,0.3759 c 2.67762,-1.11878 2.97032,-1.62758 2.98091,-5.18153 0.01,-3.20602 -0.4109,-3.62768 -3.59493,-3.60533 -2.31761,0.0163 -4.03535,1.41032 -5.17793,4.20221 -0.84798,2.07207 -0.84158,2.29867 0.0943,3.3397 0.8066,0.89723 2.36904,1.84378 3.44109,2.08465 0.0883,0.0199 1.10377,-0.35802 2.25659,-0.8397 z"
       id="path9844" />
    <path
       style="fill:#575154;fill-opacity:0.933333;stroke:none;stroke-width:0.142284;stroke-opacity:1"
       d="m 98.403844,149.39669 c -1.22822,-0.42168 -1.26786,-0.44999 -2.29616,-1.64054 l -1.04636,-1.21145 0.40008,-0.87377 c 0.22005,-0.48057 0.77969,-1.70613 1.24365,-2.72346 l 0.84357,-1.84969 1.40821,-0.40766 c 1.02259,-0.29604 1.912106,-0.439 3.248306,-0.52209 l 1.8401,-0.11441 2.51075,1.80845 2.51075,1.80845 -0.90593,1.83782 c -0.88809,1.80165 -0.9336,1.86244 -2.31228,3.08886 l -1.40635,1.25103 -2.39428,-0.0112 c -2.276916,-0.0107 -2.455516,-0.0323 -3.644056,-0.44031 z"
       id="path28978" />
    <path
       style="fill:#faf4f1;fill-opacity:0.933333;stroke:none;stroke-width:0.284567;stroke-opacity:1"
       d="m 94.033434,217.38054 c -2.307097,-0.94005 -2.981549,-1.37743 -4.600857,-2.98369 -2.379927,-2.36073 -5.035978,-7.10753 -5.784887,-10.33854 -0.272081,-1.17384 -0.958945,-2.96661 -1.526363,-3.98394 -1.953265,-3.50203 -4.068439,-9.7717 -4.858144,-14.40024 -0.319717,-1.87388 -0.9111,-4.36256 -1.31419,-5.53039 -0.403088,-1.16784 -0.989711,-3.45458 -1.303608,-5.08166 -0.313894,-1.62708 -0.805934,-3.61193 -1.093419,-4.41079 -0.384694,-1.06899 -0.572112,-2.68629 -0.709841,-6.12553 -0.137056,-3.42253 -0.308419,-4.90748 -0.640349,-5.54906 -0.733592,-1.41795 -3.494842,-9.00841 -3.494842,-9.60704 0,-0.30214 -0.640276,-1.34066 -1.422836,-2.30781 l -1.422837,-1.75846 0.01249,-2.13837 c 0.0069,-1.17611 0.123471,-3.09748 0.259104,-4.26973 l 0.24661,-2.13134 2.23547,-2.13717 c 1.476544,-1.41161 3.018235,-2.54774 4.541166,-3.34657 2.120119,-1.11207 2.474759,-1.20842 4.406185,-1.19709 2.012982,0.0118 2.168007,0.0622 3.72132,1.20941 1.105506,0.81649 2.088359,1.91677 3.091315,3.46064 1.447223,2.22775 1.478441,2.32226 1.973855,5.97591 0.368104,2.71475 0.799155,4.50392 1.604047,6.65793 1.065638,2.85181 1.151485,2.98035 2.697215,4.03872 0.878099,0.60123 2.834316,1.56692 4.347136,2.14597 2.74263,1.04978 2.75656,1.05183 4.80623,0.70842 1.130586,-0.18942 3.976446,-0.40679 6.324126,-0.48303 2.43771,-0.0792 5.07149,-0.33308 6.14067,-0.592 l 1.87216,-0.45337 0.75333,-2.02572 c 0.50349,-1.3539 0.81126,-2.87352 0.92798,-4.58199 0.0961,-1.40594 0.43537,-3.51668 0.75404,-4.69052 0.37188,-1.36987 0.56549,-2.89863 0.54058,-4.26851 -0.0369,-2.02832 0.007,-2.1867 0.88898,-3.19106 0.6507,-0.74118 1.73519,-1.4094 3.63118,-2.2374 2.68733,-1.17358 2.72874,-1.18146 6.9719,-1.32793 l 4.26851,-0.14735 0.6692,1.38475 c 0.36805,0.76161 1.28075,2.15488 2.02821,3.09616 2.22009,2.79574 3.69629,6.97595 3.70321,10.48642 0.001,0.60043 -0.27634,2.07307 -0.6167,3.27253 -0.50286,1.77207 -0.99624,2.68368 -2.63225,4.86358 -1.10737,1.47551 -3.10932,3.79378 -4.44879,5.1517 -1.68034,1.70348 -2.59321,2.88217 -2.94441,3.80179 l -0.50902,1.33285 2.18534,2.28737 c 1.20194,1.25805 2.378,2.75792 2.61346,3.33303 0.23546,0.57511 0.9917,2.2441 1.68053,3.70887 1.3496,2.86987 1.84184,5.09189 2.39054,10.79119 0.27701,2.87728 0.24578,3.57037 -0.3014,6.68733 -0.80806,4.60314 -2.14748,7.04727 -5.39266,9.84035 -1.20742,1.03921 -3.55572,3.08275 -5.21845,4.5412 -2.49837,2.19143 -3.60368,2.93239 -6.36743,4.26851 l -3.34428,1.61678 -2.83841,-0.0829 c -2.75183,-0.0804 -2.90806,-0.12113 -5.12221,-1.33602 -1.25609,-0.68922 -3.49818,-2.1509 -4.98241,-3.24818 -1.48423,-1.09729 -2.99721,-2.15487 -3.36217,-2.3502 -0.822536,-0.44021 -0.949276,-0.26831 -1.614786,2.19029 l -0.48468,1.79057 1.40599,2.08736 c 0.773296,1.14805 1.622626,2.50822 1.887406,3.0226 l 0.48141,0.93524 -1.2786,0.56558 c -1.255466,0.55535 -1.280146,0.5923 -1.364376,2.04151 -0.0846,1.45575 -0.10133,1.48033 -1.22404,1.79825 -1.04818,0.29683 -1.35225,0.23515 -3.84166,-0.77919 z"
       id="path42861" />
    <path
       style="fill:#000000;fill-opacity:0;stroke:none;stroke-width:0.10061;stroke-opacity:1"
       d="m 115.42062,119.69259 c -0.91484,-0.31645 -1.15637,-0.5053 -2.33168,-1.8231 l -0.60116,-0.67404 0.29592,-0.68419 c 0.16276,-0.3763 0.49312,-1.19847 0.73415,-1.82704 0.43451,-1.13317 0.44505,-1.14889 1.24424,-1.8564 0.44331,-0.39245 0.88045,-0.77502 0.97142,-0.85014 0.0967,-0.0798 0.82846,-0.2148 1.76067,-0.32477 l 1.59527,-0.18819 0.93064,0.50283 0.93064,0.50283 v 1.89882 1.89882 l -0.55696,1.13776 -0.55696,1.13775 -1.77195,0.72943 c -0.97458,0.40118 -1.77657,0.72601 -1.78222,0.72184 -0.006,-0.004 -0.39355,-0.14016 -0.86202,-0.30221 z"
       id="path42939" />
    <path
       style="fill:#000000;fill-opacity:0;stroke:none;stroke-width:0.284567;stroke-opacity:1"
       d="m 95.111494,152.99809 c -1.36347,-0.54216 -3.15271,-1.43944 -3.976104,-1.99394 -1.405315,-0.9464 -1.562803,-1.17712 -2.569485,-3.76429 -0.589825,-1.51585 -1.03877,-2.78974 -0.997656,-2.83085 0.04111,-0.0411 1.214845,-0.23959 2.608289,-0.44106 1.689006,-0.24421 2.565766,-0.26964 2.630206,-0.0763 0.18415,0.55244 2.22684,3.48042 3.15098,4.51658 1.27167,1.42583 2.70242,1.86685 6.056436,1.86685 h 2.78696 l 1.5571,-1.4231 c 1.10415,-1.00913 1.78628,-1.94918 2.34497,-3.23162 l 0.78788,-1.80853 2.98092,-0.25769 2.98092,-0.25769 -0.16875,2.56906 c -0.10926,1.66334 -0.41158,3.21955 -0.85753,4.41416 -0.66088,1.7704 -0.74489,1.86434 -2.07511,2.32028 -0.84479,0.28956 -2.38678,0.48893 -3.94744,0.5104 -2.47517,0.034 -6.89153,0.36121 -9.533006,0.70623 -1.04419,0.13639 -1.73812,-0.0147 -3.75958,-0.81849 z"
       id="path43795" />
    <rect
       style="fill:none;fill-opacity:0;stroke:none;stroke-width:0.264583;stroke-opacity:1"
       id="rect44582"
       width="42.685104"
       height="65.735062"
       x="52.644962"
       y="-96.468338" />
    <path
       style="fill:#f2f2f2;fill-opacity:1;stroke:none;stroke-width:0.10061;stroke-opacity:1"
       d="m 75.029925,179.09515 c -0.019,-0.22413 -1.387575,-5.43152 -1.754505,-6.67584 -0.543472,-1.84301 -0.587491,-2.14708 -1.01378,-7.00335 -0.395954,-4.51071 -0.429268,-4.6823 -1.584753,-8.16298 -1.506165,-4.53704 -3.254468,-8.55148 -4.459521,-10.23994 -0.878014,-1.23023 -0.933325,-1.36953 -1.021307,-2.57217 -0.138446,-1.89243 0.354407,-6.56083 0.824862,-7.81326 0.624316,-1.66204 3.35158,-4.11427 6.326751,-5.68873 2.499069,-1.32251 4.60651,-1.85151 6.250802,-1.56905 2.913851,0.50056 5.66089,3.03997 7.197421,6.65342 0.59586,1.40128 0.831255,2.28169 1.1649,4.35686 0.329731,2.05085 0.448228,2.43061 0.888902,2.84878 l 0.313129,0.29714 1.235064,-0.11294 c 1.394434,-0.12752 2.00896,-0.32684 2.264495,-0.7345 0.250969,-0.40038 0.327499,-1.6454 0.272339,-4.43093 -0.10775,-5.44193 -0.105924,-6.50461 0.0138,-8.03652 0.17366,-2.22165 0.56468,1.59593 0.68027,6.64151 0.0733,3.19887 0.25069,4.98769 0.59052,5.95426 0.11315,0.32182 0.50987,1.05731 0.8816,1.63442 l 0.67588,1.04928 0.21091,-0.41128 c 0.116,-0.22621 0.45874,-0.92045 0.76164,-1.54275 0.52864,-1.08607 1.44629,-2.41878 1.58461,-2.30133 0.0364,0.0309 -0.47635,1.24143 -1.13953,2.68997 l -1.2058,2.6337 0.92886,1.0567 c 1.15116,1.30958 1.25265,1.38794 2.27572,1.75698 1.18118,0.42607 1.69014,0.48927 4.119176,0.51151 l 2.15986,0.0198 1.14042,-1.01682 c 0.62723,-0.55926 1.30564,-1.21883 1.50757,-1.46573 0.34674,-0.42394 1.98373,-3.52386 1.96729,-3.72539 -0.004,-0.0517 -1.15234,-0.91809 -2.55138,-1.92529 l -2.54371,-1.83127 -2.10482,0.22217 c -1.64186,0.17331 -2.327576,0.28903 -3.117586,0.52612 -0.55703,0.16716 -1.06907,0.29013 -1.13788,0.27327 -0.22629,-0.0555 1.4948,-1.00492 2.19968,-1.21347 1.858356,-0.54984 3.993316,-0.26765 5.897196,0.77947 0.41907,0.23049 1.33806,0.83188 2.04218,1.33643 0.70412,0.50454 1.30543,0.91511 1.33624,0.91237 0.0989,-0.009 1.75117,-4.70478 1.97441,-5.61165 0.34485,-1.40091 0.35124,-2.38305 0.0292,-4.48517 -0.3246,-2.11863 -0.54721,-4.48186 -0.46322,-4.91769 l 0.0593,-0.30767 0.15663,0.24676 c 0.43311,0.68235 1.03186,4.01112 1.14395,6.35991 0.12117,2.5389 -0.0229,3.28388 -1.29927,6.71784 -0.74478,2.00379 -0.76532,2.08355 -0.54677,2.12274 0.12491,0.0224 1.05142,0.0318 2.05892,0.0208 2.21553,-0.024 2.66747,-0.13045 3.11571,-0.73358 0.5926,-0.79738 0.98236,-2.61338 1.01294,-4.71963 0.0205,-1.4083 0.20538,-2.26841 0.66586,-3.09675 0.47523,-0.85489 1.201,-1.5227 2.48163,-2.28345 1.22473,-0.72755 2.50115,-1.2837 3.89915,-1.6989 1.68124,-0.49933 5.70116,-0.6992 8.68503,-0.43183 1.59169,0.14262 1.59737,0.14554 2.06213,1.06063 0.22175,0.4366 0.87071,1.49509 1.44213,2.3522 2.04526,3.06781 2.99797,4.91062 3.57692,6.91878 0.34876,1.20972 0.6354,4.74134 0.50303,6.19762 -0.19004,2.09084 -0.82081,3.89742 -2.0247,5.79891 -0.87063,1.37513 -2.0308,2.83558 -4.69755,5.91342 -2.24637,2.59264 -3.39305,4.05685 -3.59991,4.59675 -0.12021,0.31373 -0.11001,0.35984 0.19204,0.86784 0.17545,0.29507 0.64171,0.88107 1.03614,1.30221 1.54691,1.65165 3.44539,4.77038 4.56111,7.49276 0.74832,1.82592 0.73229,1.74883 0.36961,1.77842 -0.16824,0.0137 -0.32985,-0.0299 -0.35914,-0.0969 -0.49114,-1.12366 -2.21045,-4.88215 -2.34818,-5.13321 -0.34041,-0.62054 -1.66479,-2.21967 -3.05406,-3.68765 -0.75603,-0.79886 -1.41702,-1.49968 -1.46886,-1.55736 -0.10952,-0.12186 0.2978,-1.29861 0.69701,-2.01365 0.37344,-0.66889 1.26983,-1.75266 2.67507,-3.23428 2.53175,-2.66934 5.08176,-5.83556 5.98285,-7.4286 0.51429,-0.90923 0.91382,-1.95437 1.21568,-3.18012 0.43612,-1.77096 0.49287,-2.35931 0.3714,-3.85053 -0.26993,-3.31345 -1.55244,-6.57618 -3.71017,-9.4384 -0.93437,-1.23943 -1.63636,-2.35543 -2.15104,-3.41964 l -0.45158,-0.93375 -1.07114,0.025 c -0.58912,0.0138 -2.27191,0.0695 -3.73953,0.12382 -3.31048,0.12258 -3.91987,0.23666 -5.99115,1.12148 -3.05512,1.30511 -4.53597,2.43829 -4.91223,3.75896 -0.0468,0.16433 -0.0952,0.96321 -0.10756,1.7753 -0.0274,1.80047 -0.11496,2.51258 -0.54739,4.4498 -0.39386,1.76442 -0.59283,3.03213 -0.79393,5.05843 -0.17157,1.7286 -0.47641,3.0364 -1.12977,4.84665 l -0.47299,1.31051 -1.09857,0.26831 c -1.37856,0.33671 -4.29254,0.64237 -7.91689,0.83044 -1.4927,0.0775 -3.71378,0.25744 -4.93574,0.39995 -2.625416,0.30618 -2.584486,0.31159 -5.079896,-0.67173 -2.37921,-0.93753 -3.982464,-1.77518 -5.254165,-2.74512 -0.559776,-0.42695 -0.997437,-1.17866 -1.596356,-2.74182 -1.046234,-2.73064 -1.466696,-4.44583 -1.980065,-8.07727 -0.35153,-2.48662 -0.504528,-2.97059 -1.420929,-4.49466 -1.045183,-1.73825 -1.975844,-2.88289 -3.142244,-3.8647 -1.601952,-1.34843 -2.030058,-1.52849 -3.744701,-1.57504 -1.547437,-0.042 -2.661145,0.14273 -3.656274,0.60651 -1.31894,0.61468 -2.913878,1.60377 -4.033986,2.50165 -0.955185,0.76567 -3.785261,3.38592 -3.900249,3.61109 -0.182266,0.35689 -0.508987,4.61728 -0.531212,6.92687 l -0.01532,1.59192 1.053131,1.31917 c 1.3657,1.7107 1.580277,2.07381 1.922598,3.25341 0.544115,1.87496 2.404832,6.9742 3.149094,8.62998 0.438637,0.97586 0.649184,2.06284 0.716878,3.70097 0.024,0.58099 0.153498,2.50098 0.287753,4.26665 l 0.244105,3.21029 0.445346,1.47904 c 0.244944,0.81348 0.631341,2.34911 0.858666,3.41252 0.431085,2.01657 1.000876,4.35454 1.091215,4.47747 0.02887,0.0393 -0.08554,0.0827 -0.254256,0.0965 -0.168709,0.0138 -0.309616,-0.009 -0.313121,-0.0502 z"
       id="path51422" />
  </g>
</svg>
